<svg xmlns="http://www.w3.org/2000/svg" xmlns:xlink="http://www.w3.org/1999/xlink" id="efJSbzuhp8d1" viewBox="0 0 625 481" shape-rendering="geometricPrecision" text-rendering="geometricPrecision" project-id="1d7c628d8b794d16b0fd7c1734c86404" export-id="f741fb3f346a4fa7ba12c219e735a689" cached="false" style="background-color:transparent">
<style><![CDATA[
#efJSbzuhp8d2_to {animation: efJSbzuhp8d2_to__to 4071ms linear infinite normal forwards}@keyframes efJSbzuhp8d2_to__to { 0% {offset-distance: 0%} 18.84058% {offset-distance: 0%;animation-timing-function: cubic-bezier(0.333,0,0.667,1)} 32.792926% {offset-distance: 100%} 100% {offset-distance: 100%}} #efJSbzuhp8d3 {animation: efJSbzuhp8d3_c_o 4071ms linear infinite normal forwards}@keyframes efJSbzuhp8d3_c_o { 0% {opacity: 1} 18.84058% {opacity: 1} 24.588553% {opacity: 0} 100% {opacity: 0}} #efJSbzuhp8d5_to {animation: efJSbzuhp8d5_to__to 4071ms linear infinite normal forwards}@keyframes efJSbzuhp8d5_to__to { 0% {offset-distance: 0%} 18.84058% {offset-distance: 0%;animation-timing-function: cubic-bezier(0.333,0,0.667,1)} 32.792926% {offset-distance: 100%} 100% {offset-distance: 100%}} #efJSbzuhp8d5 {animation: efJSbzuhp8d5_c_o 4071ms linear infinite normal forwards}@keyframes efJSbzuhp8d5_c_o { 0% {opacity: 1} 18.84058% {opacity: 1} 32.792926% {opacity: 0} 100% {opacity: 0}} #efJSbzuhp8d36_to {animation: efJSbzuhp8d36_to__to 4071ms linear infinite normal forwards}@keyframes efJSbzuhp8d36_to__to { 0% {offset-distance: 0%} 24.588553% {offset-distance: 0%;animation-timing-function: cubic-bezier(0.333,0,0.667,1)} 32.792926% {offset-distance: 27.272727%} 51.633505% {offset-distance: 27.272727%;animation-timing-function: cubic-bezier(0.333,0,0.667,1)} 65.561287% {offset-distance: 100%} 100% {offset-distance: 100%}} #efJSbzuhp8d37 {animation: efJSbzuhp8d37_c_o 4071ms linear infinite normal forwards}@keyframes efJSbzuhp8d37_c_o { 0% {opacity: 0} 24.588553% {opacity: 0} 32.792926% {opacity: 1} 51.633505% {opacity: 1} 57.381479% {opacity: 0} 100% {opacity: 0}} #efJSbzuhp8d39_to {animation: efJSbzuhp8d39_to__to 4071ms linear infinite normal forwards}@keyframes efJSbzuhp8d39_to__to { 0% {offset-distance: 0%} 24.588553% {offset-distance: 0%;animation-timing-function: cubic-bezier(0.333,0,0.667,1)} 32.792926% {offset-distance: 27.272727%} 51.633505% {offset-distance: 27.272727%;animation-timing-function: cubic-bezier(0.333,0,0.667,1)} 65.561287% {offset-distance: 100%} 100% {offset-distance: 100%}} #efJSbzuhp8d39 {animation: efJSbzuhp8d39_c_o 4071ms linear infinite normal forwards}@keyframes efJSbzuhp8d39_c_o { 0% {opacity: 0} 24.588553% {opacity: 0} 32.792926% {opacity: 1} 51.633505% {opacity: 1} 65.561287% {opacity: 0} 100% {opacity: 0}} #efJSbzuhp8d60_to {animation: efJSbzuhp8d60_to__to 4071ms linear infinite normal forwards}@keyframes efJSbzuhp8d60_to__to { 0% {offset-distance: 0%} 57.381479% {offset-distance: 0%;animation-timing-function: cubic-bezier(0.333,0,0.667,1)} 65.561287% {offset-distance: 27.272727%} 84.426431% {offset-distance: 27.272727%;animation-timing-function: cubic-bezier(0.333,0,0.667,1)} 98.354213% {offset-distance: 100%} 100% {offset-distance: 100%}} #efJSbzuhp8d61 {animation: efJSbzuhp8d61_c_o 4071ms linear infinite normal forwards}@keyframes efJSbzuhp8d61_c_o { 0% {opacity: 0} 57.381479% {opacity: 0} 65.561287% {opacity: 1} 84.426431% {opacity: 1} 90.14984% {opacity: 0} 100% {opacity: 0}} #efJSbzuhp8d63_to {animation: efJSbzuhp8d63_to__to 4071ms linear infinite normal forwards}@keyframes efJSbzuhp8d63_to__to { 0% {offset-distance: 0%} 57.381479% {offset-distance: 0%;animation-timing-function: cubic-bezier(0.333,0,0.667,1)} 65.561287% {offset-distance: 27.272727%} 84.426431% {offset-distance: 27.272727%;animation-timing-function: cubic-bezier(0.333,0,0.667,1)} 98.354213% {offset-distance: 100%} 100% {offset-distance: 100%}} #efJSbzuhp8d63 {animation: efJSbzuhp8d63_c_o 4071ms linear infinite normal forwards}@keyframes efJSbzuhp8d63_c_o { 0% {opacity: 0} 57.381479% {opacity: 0} 65.561287% {opacity: 1} 84.426431% {opacity: 1} 98.354213% {opacity: 0} 100% {opacity: 0}} #efJSbzuhp8d82_to {animation: efJSbzuhp8d82_to__to 4071ms linear infinite normal forwards}@keyframes efJSbzuhp8d82_to__to { 0% {offset-distance: 0%} 90.14984% {offset-distance: 0%;animation-timing-function: cubic-bezier(0.333,0,0.667,1)} 98.354213% {offset-distance: 100%} 100% {offset-distance: 100%}} #efJSbzuhp8d83 {animation: efJSbzuhp8d83_c_o 4071ms linear infinite normal forwards}@keyframes efJSbzuhp8d83_c_o { 0% {opacity: 0} 90.14984% {opacity: 0} 98.354213% {opacity: 1} 100% {opacity: 1}} #efJSbzuhp8d85_to {animation: efJSbzuhp8d85_to__to 4071ms linear infinite normal forwards}@keyframes efJSbzuhp8d85_to__to { 0% {offset-distance: 0%} 90.14984% {offset-distance: 0%;animation-timing-function: cubic-bezier(0.333,0,0.667,1)} 98.354213% {offset-distance: 100%} 100% {offset-distance: 100%}} #efJSbzuhp8d85 {animation: efJSbzuhp8d85_c_o 4071ms linear infinite normal forwards}@keyframes efJSbzuhp8d85_c_o { 0% {opacity: 0} 90.14984% {opacity: 0} 98.354213% {opacity: 1} 100% {opacity: 1}} #efJSbzuhp8d116_to {animation: efJSbzuhp8d116_to__to 4071ms linear infinite normal forwards}@keyframes efJSbzuhp8d116_to__to { 0% {transform: translate(380.5px,284.5px);animation-timing-function: cubic-bezier(0.333,0,0.667,1)} 24.588553% {transform: translate(424.5px,272.5px);animation-timing-function: cubic-bezier(0.333,0,0.667,1)} 49.177106% {transform: translate(380.5px,284.5px);animation-timing-function: cubic-bezier(0.333,0,0.667,1)} 73.76566% {transform: translate(424.5px,272.5px);animation-timing-function: cubic-bezier(0.333,0,0.667,1)} 98.354213% {transform: translate(380.5px,284.5px)} 100% {transform: translate(380.5px,284.5px)}} #efJSbzuhp8d119_to {animation: efJSbzuhp8d119_to__to 4071ms linear infinite normal forwards}@keyframes efJSbzuhp8d119_to__to { 0% {transform: translate(380.5px,284.5px);animation-timing-function: cubic-bezier(0.333,0,0.667,1)} 24.588553% {transform: translate(424.5px,272.5px);animation-timing-function: cubic-bezier(0.333,0,0.667,1)} 49.177106% {transform: translate(380.5px,284.5px);animation-timing-function: cubic-bezier(0.333,0,0.667,1)} 73.76566% {transform: translate(424.5px,272.5px);animation-timing-function: cubic-bezier(0.333,0,0.667,1)} 98.354213% {transform: translate(380.5px,284.5px)} 100% {transform: translate(380.5px,284.5px)}} #efJSbzuhp8d137_to {animation: efJSbzuhp8d137_to__to 4071ms linear infinite normal forwards}@keyframes efJSbzuhp8d137_to__to { 0% {transform: translate(380.5px,284.5px);animation-timing-function: cubic-bezier(0.333,0,0.667,1)} 24.588553% {transform: translate(424.5px,272.5px);animation-timing-function: cubic-bezier(0.333,0,0.667,1)} 49.177106% {transform: translate(380.5px,284.5px);animation-timing-function: cubic-bezier(0.333,0,0.667,1)} 73.76566% {transform: translate(424.5px,272.5px);animation-timing-function: cubic-bezier(0.333,0,0.667,1)} 98.354213% {transform: translate(380.5px,284.5px)} 100% {transform: translate(380.5px,284.5px)}} #efJSbzuhp8d146_tr {animation: efJSbzuhp8d146_tr__tr 4071ms linear infinite normal forwards}@keyframes efJSbzuhp8d146_tr__tr { 0% {transform: translate(135.33781px,207.03926px) rotate(720deg);animation-timing-function: cubic-bezier(0.415,0.08,0.115,0.955)} 100% {transform: translate(135.33781px,207.03926px) rotate(339.335065deg)}} #efJSbzuhp8d147_tr {animation: efJSbzuhp8d147_tr__tr 4071ms linear infinite normal forwards}@keyframes efJSbzuhp8d147_tr__tr { 0% {transform: translate(11.12px,29.9px) rotate(-720deg);animation-timing-function: cubic-bezier(0.415,0.08,0.115,0.955)} 100% {transform: translate(11.12px,29.9px) rotate(-339.335065deg)}}
]]></style>
<defs><linearGradient id="efJSbzuhp8d140-fill" x1="0.5" y1="0" x2="0.5" y2="1" spreadMethod="pad" gradientUnits="objectBoundingBox" gradientTransform="translate(0 0)"><stop id="efJSbzuhp8d140-fill-0" offset="0%" stop-color="rgba(255,255,255,0)"/><stop id="efJSbzuhp8d140-fill-1" offset="100%" stop-color="#010022"/></linearGradient></defs><g id="efJSbzuhp8d2_to" style="offset-path:path('M312.5,220L312.5,220C312.5,246.667,312.5,353.333,312.5,380');offset-rotate:0deg"><g transform="translate(-218.5,-63)"><g id="efJSbzuhp8d3" transform="translate(218.25 66.846)"><path d="M206.081,62.595c0,0-412.162,0-412.162,0-6.583,0-11.919-5.336-11.919-11.918c0,0,0-101.354,0-101.354c0-6.583,5.336-11.918,11.919-11.918c0,0,412.162,0,412.162,0c6.583,0,11.919,5.335,11.919,11.918c0,0,0,101.354,0,101.354c0,6.582-5.336,11.918-11.919,11.918Z" fill="#d9dfec" stroke-width="0"/></g></g></g><g id="efJSbzuhp8d5_to" style="offset-path:path('M312.5,220L312.5,220C312.5,246.667,312.5,353.333,312.5,380');offset-rotate:0deg"><g id="efJSbzuhp8d5" transform="translate(-218.5,-63)"><g transform="translate(218.25 62.846)"><path d="M206.081,62.595c0,0-412.162,0-412.162,0-6.583,0-11.919-5.336-11.919-11.918c0,0,0-101.354,0-101.354c0-6.583,5.336-11.918,11.919-11.918c0,0,412.162,0,412.162,0c6.583,0,11.919,5.335,11.919,11.918c0,0,0,101.354,0,101.354c0,6.582-5.336,11.918-11.919,11.918Z" fill="#f8f9fe" stroke-width="0"/></g><g transform="translate(268.654 79.869)"><path d="M133.539,8.938c0,0-267.078,0-267.078,0-2.626,0-4.755-2.129-4.755-4.755c0,0,0-8.366,0-8.366c0-2.626,2.129-4.755,4.755-4.755c0,0,267.078,0,267.078,0c2.626,0,4.755,2.129,4.755,4.755c0,0,0,8.366,0,8.366c0,2.626-2.129,4.755-4.755,4.755Z" fill="#e0e3ec" stroke-width="0"/></g><g transform="translate(225.654 45.822)"><path d="M90.539,8.938c0,0-181.078,0-181.078,0-2.626,0-4.755-2.129-4.755-4.755c0,0,0-8.366,0-8.366c0-2.626,2.129-4.755,4.755-4.755c0,0,181.078,0,181.078,0c2.626,0,4.755,2.129,4.755,4.755c0,0,0,8.366,0,8.366c0,2.626-2.129,4.755-4.755,4.755Z" fill="#e0e3ec" stroke-width="0"/></g><g transform="translate(68.072 82.887)"><path d="M-28.872,-9.594c0,0,0,9.043,0,9.043c0,5.604,4.543,10.145,10.146,10.145c0,0,37.453,0,37.453,0c5.602,0,10.145-4.541,10.145-10.145c0,0,0-9.043,0-9.043s-57.744,0-57.744,0Z" fill="#e0e3ec" stroke-width="0"/></g><g transform="translate(68.072 77.814)"><path d="M28.872,4.521c0,0,0-9.042,0-9.042s-57.744,0-57.744,0s0,9.042,0,9.042" fill="#b9bcc5" stroke-width="0"/></g><g transform="translate(55.164 71.119)"><path d="M9.289,-7.512c-1.755,0-3.366.606-4.645,1.614-1.278-1.008-2.889-1.614-4.643-1.614-1.755,0-3.366.606-4.645,1.614-1.279-1.008-2.889-1.614-4.645-1.614-4.149,0-7.512,3.363-7.512,7.512s3.363,7.512,7.512,7.512c1.756,0,3.366-.607,4.645-1.614c1.279,1.007,2.89,1.614,4.645,1.614c1.754,0,3.365-.607,4.643-1.614c1.279,1.007,2.89,1.614,4.645,1.614c4.149,0,7.512-3.363,7.512-7.512s-3.363-7.512-7.512-7.512Z" fill="#e2e5ed" stroke-width="0"/></g><g transform="translate(80.979 71.119)"><path d="M9.288,-7.512c-1.754,0-3.364.606-4.644,1.614C3.366,-6.906,1.755,-7.512,0,-7.512c-1.754,0-3.365.606-4.644,1.614-1.277-1.008-2.889-1.614-4.643-1.614-4.149,0-7.513,3.363-7.513,7.512s3.364,7.512,7.513,7.512c1.754,0,3.366-.607,4.643-1.614C-3.365,6.905,-1.754,7.512,0,7.512c1.755,0,3.366-.607,4.644-1.614c1.28,1.007,2.89,1.614,4.644,1.614C13.437,7.512,16.8,4.149,16.8,0s-3.363-7.512-7.512-7.512Z" fill="#e2e5ed" stroke-width="0"/></g><g transform="translate(68.071 49.845)"><path d="M29.698,3.975c0,12.659-16.722,9.66-29.697,9.66s-29.699,2.999-29.699-9.66c0-12.66,13.297-20.61,29.699-20.61c16.401,0,29.697,7.95,29.697,20.61Z" fill="#e0e3ec" stroke-width="0"/></g><g transform="translate(68.071 65.93)"><path d="M32.762,0c0,3.424-2.776,6.199-6.201,6.199c0,0-53.123,0-53.123,0-3.424,0-6.2-2.775-6.2-6.199c0-3.423,2.776-6.199,6.2-6.199c0,0,53.123,0,53.123,0c3.425,0,6.201,2.776,6.201,6.199Z" fill="#b9bcc5" stroke-width="0"/></g><g transform="translate(77.718 66.761)"><path d="M-13.869,-7.055c0,0,17.529,14.11,17.529,14.11s10.209-14.11,10.209-14.11-27.738,0-27.738,0Z" fill="#fff" stroke-width="0"/></g><g transform="translate(51.568 45.211)"><path d="M1.541,0c0-.851-.69-1.541-1.542-1.541-.851,0-1.54.69-1.54,1.541s.689,1.541,1.54,1.541c.852,0,1.542-.69,1.542-1.541Z" fill="#d1d3de" stroke-width="0"/></g><g transform="translate(62.741 49.257)"><path d="M1.542,-0.001c0-.851-.69-1.541-1.541-1.541s-1.543.69-1.543,1.541.692,1.543,1.543,1.543s1.541-.692,1.541-1.543Z" fill="#d1d3de" stroke-width="0"/></g><g transform="translate(59.852 41.359)"><path d="M1.542,0c0-.851-.691-1.541-1.543-1.541-.85,0-1.541.69-1.541,1.541s.691,1.541,1.541,1.541c.852,0,1.543-.69,1.543-1.541Z" fill="#d1d3de" stroke-width="0"/></g><g transform="translate(76.996 40.01)"><path d="M1.541,0c0-.851-.69-1.541-1.541-1.541s-1.541.69-1.541,1.541.69,1.541,1.541,1.541s1.541-.69,1.541-1.541Z" fill="#d1d3de" stroke-width="0"/></g><g transform="translate(83.352 46.752)"><path d="M1.541,0c0-.851-.689-1.541-1.541-1.541-.851,0-1.541.69-1.541,1.541s.69,1.541,1.541,1.541c.852,0,1.541-.69,1.541-1.541Z" fill="#d1d3de" stroke-width="0"/></g></g></g><g id="efJSbzuhp8d36_to" style="offset-path:path('M312.5,160C312.5,170,312.5,210,312.5,220L312.5,220C312.5,246.667,312.5,353.333,312.5,380');offset-rotate:0deg"><g transform="translate(-218.5,-63)"><g id="efJSbzuhp8d37" transform="translate(218.25 66.846)" opacity="0"><path d="M206.081,62.596c0,0-412.162,0-412.162,0-6.583,0-11.919-5.337-11.919-11.919c0,0,0-101.354,0-101.354c0-6.583,5.336-11.919,11.919-11.919c0,0,412.162,0,412.162,0c6.583,0,11.919,5.336,11.919,11.919c0,0,0,101.354,0,101.354c0,6.582-5.336,11.919-11.919,11.919Z" fill="#d9dfec" stroke-width="0"/></g></g></g><g id="efJSbzuhp8d39_to" style="offset-path:path('M312.5,160C312.5,170,312.5,210,312.5,220L312.5,220C312.5,246.667,312.5,353.333,312.5,380');offset-rotate:0deg"><g id="efJSbzuhp8d39" transform="translate(-218.5,-63)" opacity="0"><g transform="translate(218.25 62.846)"><path d="M206.081,62.596c0,0-412.162,0-412.162,0-6.583,0-11.919-5.337-11.919-11.919c0,0,0-101.354,0-101.354c0-6.583,5.336-11.919,11.919-11.919c0,0,412.162,0,412.162,0c6.583,0,11.919,5.336,11.919,11.919c0,0,0,101.354,0,101.354c0,6.582-5.336,11.919-11.919,11.919Z" fill="#f8f9fe" stroke-width="0"/></g><g transform="translate(268.654 79.869)"><path d="M133.539,8.938c0,0-267.078,0-267.078,0-2.626,0-4.755-2.129-4.755-4.755c0,0,0-8.366,0-8.366c0-2.626,2.129-4.755,4.755-4.755c0,0,267.078,0,267.078,0c2.626,0,4.755,2.129,4.755,4.755c0,0,0,8.366,0,8.366c0,2.626-2.129,4.755-4.755,4.755Z" fill="#e0e3ec" stroke-width="0"/></g><g transform="translate(225.654 45.822)"><path d="M90.539,8.938c0,0-181.078,0-181.078,0-2.626,0-4.755-2.129-4.755-4.755c0,0,0-8.366,0-8.366c0-2.626,2.129-4.755,4.755-4.755c0,0,181.078,0,181.078,0c2.626,0,4.755,2.129,4.755,4.755c0,0,0,8.366,0,8.366c0,2.626-2.129,4.755-4.755,4.755Z" fill="#e0e3ec" stroke-width="0"/></g><g transform="translate(95.562 62.453)"><path d="M-5.262,13.906c3.798,0,6.785-1.127,8.876-3.353C6.77,7.198,6.671,2.551,6.644,1.962c0,0,0-14.36,0-14.36c0-.833-.675-1.508-1.508-1.508c0,0-9.599,0-9.599,0-.832,0-1.507.675-1.507,1.508s.675,1.508,1.507,1.508c0,0,8.092,0,8.092,0s0,12.89,0,12.89c0,.031.001.062.003.093.002.038.205,3.823-2.214,6.396-1.499,1.594-3.747,2.402-6.68,2.402-.833,0-1.508.675-1.508,1.508c0,.832.675,1.507,1.508,1.507Z" fill="#e0e3ed" stroke-width="0"/></g><g transform="translate(65.69 67.621)"><path d="M-24.673,-23.988c0,0,0,34.993,0,34.993c0,7.17,5.812,12.983,12.982,12.983c0,0,23.382,0,23.382,0c7.17,0,12.982-5.813,12.982-12.983c0,0,0-34.993,0-34.993s-49.346,0-49.346,0Z" fill="#fff" stroke-width="0"/></g><g transform="translate(65.663 75.482)"><path d="M-24.673,-16.126c0,0,0,19.27,0,19.27c0,7.17,5.812,12.982,12.982,12.982c0,0,23.381,0,23.381,0c7.17,0,12.983-5.812,12.983-12.982c0,0,0-19.27,0-19.27s-49.346,0-49.346,0Z" fill="#b4b8c6" stroke-width="0"/></g><g transform="translate(58.303 34.057)"><path d="M2.379,-5.853c-.258-.206-.581-.334-.936-.334-.833,0-1.509.675-1.509,1.507c0,1.912-.537,2.785-1.217,3.889-.782,1.267-1.667,2.703-1.667,5.47c0,.833.675,1.508,1.508,1.508.832,0,1.507-.675,1.507-1.508c0-1.912.538-2.784,1.219-3.888.379-.614.78-1.272,1.095-2.098.334-.878.571-1.947.571-3.373c0-.477-.225-.897-.571-1.173Z" fill="#e0e3ed" stroke-width="0"/></g><g transform="translate(65.662 34.057)"><path d="M2.378,-5.853c-.258-.206-.58-.334-.936-.334-.833,0-1.507.675-1.507,1.508c0,1.912-.537,2.784-1.219,3.888-.378.615-.779,1.272-1.094,2.098-.335.878-.572,1.947-.572,3.373c0,.477.226.897.572,1.173.257.206.58.334.936.334.833,0,1.507-.675,1.507-1.507c0-1.912.538-2.784,1.219-3.888.378-.615.779-1.272,1.094-2.098.335-.878.572-1.947.572-3.373c0-.477-.226-.898-.572-1.174Z" fill="#e0e3ed" stroke-width="0"/></g><g transform="translate(73.021 34.057)"><path d="M1.443,-6.187c-.833,0-1.508.675-1.508,1.508c0,1.912-.538,2.784-1.218,3.888-.378.614-.78,1.271-1.095,2.097-.335.878-.572,1.947-.572,3.374c0,.477.226.897.572,1.173.258.206.58.334.936.334.833,0,1.508-.675,1.508-1.507c0-1.912.537-2.784,1.217-3.888.782-1.268,1.667-2.704,1.667-5.471c0-.833-.674-1.508-1.507-1.508Z" fill="#e0e3ed" stroke-width="0"/></g><g transform="translate(81.023 67.621)"><path d="M-9.341,-23.988c0,0,0,47.976,0,47.976s5.699,0,5.699,0c7.17,0,12.982-5.813,12.982-12.983c0,0,0-34.993,0-34.993s-18.681,0-18.681,0Z" fill-opacity="0.1" stroke-width="0"/></g></g></g><g id="efJSbzuhp8d60_to" style="offset-path:path('M312.5,160C312.5,170,312.5,210,312.5,220L312.5,220C312.5,246.667,312.5,353.333,312.5,380');offset-rotate:0deg"><g transform="translate(-218.5,-63)"><g id="efJSbzuhp8d61" transform="translate(217.75 66.846)" opacity="0"><path d="M206.081,62.596c0,0-412.162,0-412.162,0-6.583,0-11.919-5.337-11.919-11.92c0,0,0-101.353,0-101.353c0-6.583,5.336-11.919,11.919-11.919c0,0,412.162,0,412.162,0c6.583,0,11.919,5.336,11.919,11.919c0,0,0,101.353,0,101.353c0,6.583-5.336,11.92-11.919,11.92Z" fill="#d9dfec" stroke-width="0"/></g></g></g><g id="efJSbzuhp8d63_to" style="offset-path:path('M312.5,160C312.5,170,312.5,210,312.5,220L312.5,220C312.5,246.667,312.5,353.333,312.5,380');offset-rotate:0deg"><g id="efJSbzuhp8d63" transform="translate(-218.5,-63)" opacity="0"><g transform="translate(218.25 62.846)"><path d="M206.081,62.596c0,0-412.162,0-412.162,0-6.583,0-11.919-5.337-11.919-11.92c0,0,0-101.353,0-101.353c0-6.583,5.336-11.919,11.919-11.919c0,0,412.162,0,412.162,0c6.583,0,11.919,5.336,11.919,11.919c0,0,0,101.353,0,101.353c0,6.583-5.336,11.92-11.919,11.92Z" fill="#f8f9fe" stroke-width="0"/></g><g transform="translate(268.654 79.868)"><path d="M133.539,8.938c0,0-267.078,0-267.078,0-2.626,0-4.755-2.129-4.755-4.755c0,0,0-8.366,0-8.366c0-2.626,2.129-4.755,4.755-4.755c0,0,267.078,0,267.078,0c2.626,0,4.755,2.129,4.755,4.755c0,0,0,8.366,0,8.366c0,2.626-2.129,4.755-4.755,4.755Z" fill="#e0e3ec" stroke-width="0"/></g><g transform="translate(225.654 45.822)"><path d="M90.539,8.938c0,0-181.078,0-181.078,0-2.626,0-4.755-2.129-4.755-4.755c0,0,0-8.366,0-8.366c0-2.626,2.129-4.755,4.755-4.755c0,0,181.078,0,181.078,0c2.626,0,4.755,2.129,4.755,4.755c0,0,0,8.366,0,8.366c0,2.626-2.129,4.755-4.755,4.755Z" fill="#e0e3ec" stroke-width="0"/></g><g transform="translate(68.662 66.773)"><path d="M19.879,-29.568c0,0-45.251,0-45.251,0s0,59.136,0,59.136s45.251,0,45.251,0c3.034,0,5.493-2.46,5.493-5.492c0,0,0-48.152,0-48.152c0-3.034-2.459-5.492-5.493-5.492Z" fill="#c3c6d4" stroke-width="0"/></g><g transform="translate(49.072 66.773)"><path d="M5.782,-29.568c0,0-11.564,0-11.564,0s0,59.136,0,59.136s11.564,0,11.564,0s0-59.136,0-59.136Z" fill="#b4b7c1" stroke-width="0"/></g><g transform="translate(68.663 64.431)"><path d="M18.025,-29.568c0,0-41.543,0-41.543,0s0,59.136,0,59.136s41.543,0,41.543,0c3.034,0,5.493-2.46,5.493-5.493c0,0,0-48.15,0-48.15c0-3.034-2.459-5.493-5.493-5.493Z" fill="#fff" stroke-width="0"/></g><g transform="translate(66.54 60.917)"><path d="M17.756,-29.568c0,0-41.005,0-41.005,0s0,59.136,0,59.136s41.005,0,41.005,0c3.034,0,5.493-2.458,5.493-5.493c0,0,0-48.15,0-48.15c0-3.033-2.459-5.493-5.493-5.493Z" fill="#cfd2dd" stroke-width="0"/></g><g transform="translate(49.072 60.917)"><path d="M5.782,-29.568c0,0-11.564,0-11.564,0s0,59.136,0,59.136s11.564,0,11.564,0s0-59.136,0-59.136Z" fill="#b4b7c1" stroke-width="0"/></g><g transform="translate(72.091 47.936)"><path d="M9.68,4.331c0,0-19.36,0-19.36,0s0-8.662,0-8.662s19.36,0,19.36,0s0,8.662,0,8.662Z" fill="#fff" stroke-width="0"/></g></g></g><g id="efJSbzuhp8d82_to" style="offset-path:path('M312.5,160C312.5,170,312.5,210,312.5,220');offset-rotate:0deg"><g transform="translate(-218.5,-63)"><g id="efJSbzuhp8d83" transform="translate(218.25 66.846)" opacity="0"><path d="M206.081,62.595c0,0-412.162,0-412.162,0-6.583,0-11.919-5.336-11.919-11.918c0,0,0-101.354,0-101.354c0-6.583,5.336-11.918,11.919-11.918c0,0,412.162,0,412.162,0c6.583,0,11.919,5.335,11.919,11.918c0,0,0,101.354,0,101.354c0,6.582-5.336,11.918-11.919,11.918Z" fill="#d9dfec" stroke-width="0"/></g></g></g><g id="efJSbzuhp8d85_to" style="offset-path:path('M312.5,160C312.5,170,312.5,210,312.5,220');offset-rotate:0deg"><g id="efJSbzuhp8d85" transform="translate(-218.5,-63)" opacity="0"><g transform="translate(218.25 62.846)"><path d="M206.081,62.595c0,0-412.162,0-412.162,0-6.583,0-11.919-5.336-11.919-11.918c0,0,0-101.354,0-101.354c0-6.583,5.336-11.918,11.919-11.918c0,0,412.162,0,412.162,0c6.583,0,11.919,5.335,11.919,11.918c0,0,0,101.354,0,101.354c0,6.582-5.336,11.918-11.919,11.918Z" fill="#f8f9fe" stroke-width="0"/></g><g transform="translate(268.654 79.869)"><path d="M133.539,8.938c0,0-267.078,0-267.078,0-2.626,0-4.755-2.129-4.755-4.755c0,0,0-8.366,0-8.366c0-2.626,2.129-4.755,4.755-4.755c0,0,267.078,0,267.078,0c2.626,0,4.755,2.129,4.755,4.755c0,0,0,8.366,0,8.366c0,2.626-2.129,4.755-4.755,4.755Z" fill="#e0e3ec" stroke-width="0"/></g><g transform="translate(225.654 45.822)"><path d="M90.539,8.938c0,0-181.078,0-181.078,0-2.626,0-4.755-2.129-4.755-4.755c0,0,0-8.366,0-8.366c0-2.626,2.129-4.755,4.755-4.755c0,0,181.078,0,181.078,0c2.626,0,4.755,2.129,4.755,4.755c0,0,0,8.366,0,8.366c0,2.626-2.129,4.755-4.755,4.755Z" fill="#e0e3ec" stroke-width="0"/></g><g transform="translate(68.072 82.887)"><path d="M-28.872,-9.594c0,0,0,9.043,0,9.043c0,5.604,4.543,10.145,10.146,10.145c0,0,37.453,0,37.453,0c5.602,0,10.145-4.541,10.145-10.145c0,0,0-9.043,0-9.043s-57.744,0-57.744,0Z" fill="#e0e3ec" stroke-width="0"/></g><g transform="translate(68.072 77.814)"><path d="M28.872,4.521c0,0,0-9.042,0-9.042s-57.744,0-57.744,0s0,9.042,0,9.042" fill="#b9bcc5" stroke-width="0"/></g><g transform="translate(55.164 71.119)"><path d="M9.289,-7.512c-1.755,0-3.366.606-4.645,1.614-1.278-1.008-2.889-1.614-4.643-1.614-1.755,0-3.366.606-4.645,1.614-1.279-1.008-2.889-1.614-4.645-1.614-4.149,0-7.512,3.363-7.512,7.512s3.363,7.512,7.512,7.512c1.756,0,3.366-.607,4.645-1.614c1.279,1.007,2.89,1.614,4.645,1.614c1.754,0,3.365-.607,4.643-1.614c1.279,1.007,2.89,1.614,4.645,1.614c4.149,0,7.512-3.363,7.512-7.512s-3.363-7.512-7.512-7.512Z" fill="#e2e5ed" stroke-width="0"/></g><g transform="translate(80.979 71.119)"><path d="M9.288,-7.512c-1.754,0-3.364.606-4.644,1.614C3.366,-6.906,1.755,-7.512,0,-7.512c-1.754,0-3.365.606-4.644,1.614-1.277-1.008-2.889-1.614-4.643-1.614-4.149,0-7.513,3.363-7.513,7.512s3.364,7.512,7.513,7.512c1.754,0,3.366-.607,4.643-1.614C-3.365,6.905,-1.754,7.512,0,7.512c1.755,0,3.366-.607,4.644-1.614c1.28,1.007,2.89,1.614,4.644,1.614C13.437,7.512,16.8,4.149,16.8,0s-3.363-7.512-7.512-7.512Z" fill="#e2e5ed" stroke-width="0"/></g><g transform="translate(68.071 49.845)"><path d="M29.698,3.975c0,12.659-16.722,9.66-29.697,9.66s-29.699,2.999-29.699-9.66c0-12.66,13.297-20.61,29.699-20.61c16.401,0,29.697,7.95,29.697,20.61Z" fill="#e0e3ec" stroke-width="0"/></g><g transform="translate(68.071 65.93)"><path d="M32.762,0c0,3.424-2.776,6.199-6.201,6.199c0,0-53.123,0-53.123,0-3.424,0-6.2-2.775-6.2-6.199c0-3.423,2.776-6.199,6.2-6.199c0,0,53.123,0,53.123,0c3.425,0,6.201,2.776,6.201,6.199Z" fill="#b9bcc5" stroke-width="0"/></g><g transform="translate(77.718 66.761)"><path d="M-13.869,-7.055c0,0,17.529,14.11,17.529,14.11s10.209-14.11,10.209-14.11-27.738,0-27.738,0Z" fill="#fff" stroke-width="0"/></g><g transform="translate(51.568 45.211)"><path d="M1.541,0c0-.851-.69-1.541-1.542-1.541-.851,0-1.54.69-1.54,1.541s.689,1.541,1.54,1.541c.852,0,1.542-.69,1.542-1.541Z" fill="#d1d3de" stroke-width="0"/></g><g transform="translate(62.741 49.257)"><path d="M1.542,-0.001c0-.851-.69-1.541-1.541-1.541s-1.543.69-1.543,1.541.692,1.543,1.543,1.543s1.541-.692,1.541-1.543Z" fill="#d1d3de" stroke-width="0"/></g><g transform="translate(59.852 41.359)"><path d="M1.542,0c0-.851-.691-1.541-1.543-1.541-.85,0-1.541.69-1.541,1.541s.691,1.541,1.541,1.541c.852,0,1.543-.69,1.543-1.541Z" fill="#d1d3de" stroke-width="0"/></g><g transform="translate(76.996 40.01)"><path d="M1.541,0c0-.851-.69-1.541-1.541-1.541s-1.541.69-1.541,1.541.69,1.541,1.541,1.541s1.541-.69,1.541-1.541Z" fill="#d1d3de" stroke-width="0"/></g><g transform="translate(83.352 46.752)"><path d="M1.541,0c0-.851-.689-1.541-1.541-1.541-.851,0-1.541.69-1.541,1.541s.69,1.541,1.541,1.541c.852,0,1.541-.69,1.541-1.541Z" fill="#d1d3de" stroke-width="0"/></g></g></g><g id="efJSbzuhp8d116_to" transform="translate(380.5,284.5)"><g transform="scale(0.83947,0.83947) translate(-2.779001,12.67)"><path d="M86.233,69.269c0,0-44.778-44.375-44.778-44.375c19.125-26.996,16.614-64.624-7.569-88.807-27.007-27.007-70.792-27.006-97.799,0-27.006,27.007-27.006,70.793,0,97.8c24.041,24.04,61.367,26.661,88.328,7.901c0,0,44.852,44.446,44.852,44.446c4.685,4.685,12.281,4.685,16.966,0c4.686-4.685,4.686-12.28,0-16.965Z" fill="#6e809d" fill-opacity="0.1" stroke-width="0"/><path d="M-51.185,21.159c-19.977-19.978-19.978-52.367.001-72.344c19.977-19.977,52.365-19.978,72.343-.001c19.976,19.977,19.976,52.367,0,72.345-19.978,19.978-52.366,19.977-72.344,0Z" fill="#6e809d" fill-opacity="0.1" stroke-width="0"/></g></g><g id="efJSbzuhp8d119_to" transform="translate(380.5,284.5)"><g transform="scale(0.83947,0.83947) translate(-91.5,-91.5)"><g transform="translate(76.156 76.156)"><path d="M-36.172,-36.172c-19.978,19.977-19.977,52.366,0,72.343c19.978,19.977,52.366,19.978,72.344,0c19.976-19.977,19.976-52.366,0-72.343-19.978-19.978-52.366-19.977-72.344,0Z" fill="#80a6ff" fill-opacity="0.25" stroke-width="0"/></g><g transform="translate(37.597 55.556)"><path d="M-1.281,4.349c-.251,0-.506-.052-.749-.163-.914-.414-1.318-1.49-.904-2.403.78-1.72,1.675-3.406,2.663-5.012.525-.854,1.643-1.12,2.498-.595.854.525,1.121,1.644.596,2.498-.908,1.476-1.732,3.027-2.45,4.609-.303.67-.964,1.066-1.654,1.066Z" fill="#fff" stroke-width="0"/></g><g transform="translate(96.212 41.374)"><path d="M15.124,10.607c-.556,0-1.104-.254-1.461-.735-1.232-1.663-2.604-3.255-4.079-4.729-6.819-6.819-15.48-10.977-25.046-12.026-.997-.109-1.716-1.007-1.606-2.004s1.001-1.72,2.004-1.608C-4.817,-9.372,4.849,-4.729,12.152,2.574c1.601,1.601,3.09,3.329,4.429,5.136.597.806.428,1.943-.379,2.54-.325.241-.703.357-1.078.357Z" fill="#fff" stroke-width="0"/></g><g transform="translate(116.007 93.836)"><path d="M-1.124,4.474c-.284,0-.573-.067-.843-.209-.887-.466-1.229-1.565-.762-2.453.824-1.568,1.554-3.205,2.17-4.867.35-.94,1.394-1.419,2.335-1.071.941.349,1.42,1.396,1.071,2.336-.671,1.807-1.465,3.588-2.362,5.293-.325.618-.956.971-1.609.971Z" fill="#fff" stroke-width="0"/></g><g transform="translate(34.08 80.75)"><path d="M2.471,15.796c-.683,0-1.337-.387-1.646-1.046-4.199-8.955-5.364-19.234-3.281-28.942.21-.981,1.174-1.604,2.156-1.395.981.211,1.606,1.176,1.395,2.157-1.918,8.937-.846,18.397,3.019,26.639.425.907.035,1.989-.873,2.415-.249.116-.512.172-.77.172Z" fill="#fff" stroke-width="0"/></g><g transform="translate(91.169 91.17)"><path d="M86.233,69.269c0,0-44.778-44.375-44.778-44.375c19.125-26.996,16.614-64.624-7.569-88.807-27.007-27.007-70.792-27.006-97.799,0-27.006,27.007-27.006,70.793,0,97.8c24.041,24.04,61.367,26.661,88.328,7.901c0,0,44.852,44.446,44.852,44.446c4.685,4.685,12.281,4.685,16.966,0c4.686-4.685,4.686-12.28,0-16.965Z" fill="#3ba4f8" stroke-width="0"/><path d="M-51.185,21.159c-19.977-19.978-19.978-52.367.001-72.344c19.977-19.977,52.365-19.978,72.343-.001c19.976,19.977,19.976,52.367,0,72.345-19.978,19.978-52.366,19.977-72.344,0Z" fill="#3ba4f8" stroke-width="0"/></g></g></g><g mask="url(#efJSbzuhp8d136)"><g transform="matrix(1.334503 0 0 0.539665 378.711212 207.223313)"><path d="M86,0C86,47.497,47.497,86,0,86s-86-38.503-86-86s38.503-86,86-86s86,38.503,86,86Z" fill="#7ab7fd" fill-opacity="0.75" stroke-width="0"/></g><mask id="efJSbzuhp8d136" mask-type="alpha" x="-150%" y="-150%" height="400%" width="400%"><g id="efJSbzuhp8d137_to" transform="translate(380.5,284.5)"><g transform="scale(0.83947,0.83947) translate(-0.331001,-0.33)"><path d="M86.233,69.269c0,0-44.778-44.375-44.778-44.375c19.125-26.996,16.614-64.624-7.569-88.807-27.007-27.007-70.792-27.006-97.799,0-27.006,27.007-27.006,70.793,0,97.8c24.041,24.04,61.367,26.661,88.328,7.901c0,0,44.852,44.446,44.852,44.446c4.685,4.685,12.281,4.685,16.966,0c4.686-4.685,4.686-12.28,0-16.965Z" fill="#3ba4f8" stroke-width="0"/><path d="M-51.185,21.159c-19.977-19.978-19.978-52.367.001-72.344c19.977-19.977,52.365-19.978,72.343-.001c19.976,19.977,19.976,52.367,0,72.345-19.978,19.978-52.366,19.977-72.344,0Z" fill="#3ba4f8" stroke-width="0"/></g></g></mask></g>

</svg>