<?xml version="1.0" encoding="utf-8"?>
<svg viewBox="0 0 1000 1000" shape-rendering="geometricPrecision" text-rendering="geometricPrecision" style="background-color:transparent" xmlns="http://www.w3.org/2000/svg">
  <defs>
    <linearGradient id="eJ7d2BaArLZ4-fill" x1="0" y1="0" x2="3.016" y2="-41.562" spreadMethod="pad" gradientUnits="userSpaceOnUse" gradientTransform="translate(0 0)">
      <stop id="eJ7d2BaArLZ4-fill-0" offset="0" stop-color="#ff8d1a"/>
      <stop id="eJ7d2BaArLZ4-fill-1" offset="0.792" stop-color="#ff8618"/>
      <stop id="eJ7d2BaArLZ4-fill-2" offset="1" stop-color="#ff8016"/>
    </linearGradient>
    <linearGradient id="eJ7d2BaArLZ6-fill" x1="-244.43" y1="-95.938" x2="-110.785" y2="-38.105" spreadMethod="pad" gradientUnits="userSpaceOnUse" gradientTransform="translate(0 0)">
      <stop id="eJ7d2BaArLZ6-fill-0" offset="0" stop-color="#f95f2d"/>
      <stop id="eJ7d2BaArLZ6-fill-1" offset="0.792" stop-color="#fc7623"/>
      <stop id="eJ7d2BaArLZ6-fill-2" offset="1" stop-color="#ff8d1a"/>
    </linearGradient>
    <linearGradient id="eJ7d2BaArLZ6-stroke" x1="-233.605" y1="-79.281" x2="-102.555" y2="-8.555" spreadMethod="pad" gradientUnits="userSpaceOnUse" gradientTransform="translate(0 0)">
      <stop id="eJ7d2BaArLZ6-stroke-0" offset="0" stop-color="#f95b29"/>
      <stop id="eJ7d2BaArLZ6-stroke-1" offset="0.5" stop-color="#fc7120"/>
      <stop id="eJ7d2BaArLZ6-stroke-2" offset="1" stop-color="#ff8818"/>
    </linearGradient>
    <linearGradient id="eJ7d2BaArLZ8-fill" x1="218.148" y1="-76.566" x2="86.469" y2="21.484" spreadMethod="pad" gradientUnits="userSpaceOnUse" gradientTransform="translate(0 0)">
      <stop id="eJ7d2BaArLZ8-fill-0" offset="0" stop-color="#fb6021"/>
      <stop id="eJ7d2BaArLZ8-fill-1" offset="0.792" stop-color="#fd771e"/>
      <stop id="eJ7d2BaArLZ8-fill-2" offset="1" stop-color="#ff8d1a"/>
    </linearGradient>
    <linearGradient id="eJ7d2BaArLZ8-stroke" x1="201.543" y1="-64.141" x2="85.004" y2="21.816" spreadMethod="pad" gradientUnits="userSpaceOnUse" gradientTransform="translate(0 0)">
      <stop id="eJ7d2BaArLZ8-stroke-0" offset="0" stop-color="#fb682b"/>
      <stop id="eJ7d2BaArLZ8-stroke-1" offset="0.5" stop-color="#fd7821"/>
      <stop id="eJ7d2BaArLZ8-stroke-2" offset="1" stop-color="#ff8818"/>
    </linearGradient>
    <linearGradient id="eJ7d2BaArLZ10-fill" x1="1.477" y1="-290.531" x2="-11.477" y2="-55.898" spreadMethod="pad" gradientUnits="userSpaceOnUse" gradientTransform="translate(0 0)">
      <stop id="eJ7d2BaArLZ10-fill-0" offset="0.001" stop-color="#f44236"/>
      <stop id="eJ7d2BaArLZ10-fill-1" offset="0.792" stop-color="#f96126"/>
      <stop id="eJ7d2BaArLZ10-fill-2" offset="1" stop-color="#ff8016"/>
    </linearGradient>
    <linearGradient id="eJ7d2BaArLZ10-stroke" x1="0.891" y1="-291.188" x2="-11.352" y2="-53.539" spreadMethod="pad" gradientUnits="userSpaceOnUse" gradientTransform="translate(0 0)">
      <stop id="eJ7d2BaArLZ10-stroke-0" offset="0" stop-color="#f44236"/>
      <stop id="eJ7d2BaArLZ10-stroke-1" offset="0.5" stop-color="#f96126"/>
      <stop id="eJ7d2BaArLZ10-stroke-2" offset="1" stop-color="#ff8016"/>
    </linearGradient>
    <linearGradient id="eJ7d2BaArLZ12-fill" x1="0" y1="-110.387" x2="-0.496" y2="240.078" spreadMethod="pad" gradientUnits="userSpaceOnUse" gradientTransform="translate(0 0)">
      <stop id="eJ7d2BaArLZ12-fill-0" offset="0" stop-color="#ffe271"/>
      <stop id="eJ7d2BaArLZ12-fill-1" offset="0.447" stop-color="#ffee9b"/>
      <stop id="eJ7d2BaArLZ12-fill-2" offset="0.89" stop-color="#fffac5"/>
      <stop id="eJ7d2BaArLZ12-fill-3" offset="0.921" stop-color="#ffc46f"/>
      <stop id="eJ7d2BaArLZ12-fill-4" offset="1" stop-color="#ff8d1a"/>
    </linearGradient>
    <linearGradient id="eJ7d2BaArLZ12-stroke" x1="0" y1="-110.031" x2="-2.312" y2="237.617" spreadMethod="pad" gradientUnits="userSpaceOnUse" gradientTransform="translate(0 0)">
      <stop id="eJ7d2BaArLZ12-stroke-0" offset="0" stop-color="#ffea77"/>
      <stop id="eJ7d2BaArLZ12-stroke-1" offset="0.45" stop-color="#fff29e"/>
      <stop id="eJ7d2BaArLZ12-stroke-2" offset="0.899" stop-color="#fffac5"/>
      <stop id="eJ7d2BaArLZ12-stroke-3" offset="0.929" stop-color="#ffc46f"/>
      <stop id="eJ7d2BaArLZ12-stroke-4" offset="1" stop-color="#ff8d1a"/>
    </linearGradient>
    <style>
#eJ7d2BaArLZ2 {animation: eJ7d2BaArLZ2_c_o 1083ms linear infinite normal forwards}@keyframes eJ7d2BaArLZ2_c_o { 0% {opacity: 1;animation-timing-function: step-end} 99.445983% {opacity: 0} 100% {opacity: 0}} #eJ7d2BaArLZ5_tr {animation: eJ7d2BaArLZ5_tr__tr 1083ms linear infinite normal forwards}@keyframes eJ7d2BaArLZ5_tr__tr { 0% {transform: translate(266px,645px) rotate(-1.977769deg);animation-timing-function: cubic-bezier(0.3331,0.0803,0.667,1)} 46.537396% {transform: translate(266px,645px) rotate(2deg);animation-timing-function: cubic-bezier(0.333,0,0.667,1)} 99.445983% {transform: translate(266px,645px) rotate(-2deg)} 100% {transform: translate(266px,645px) rotate(-2deg)}} #eJ7d2BaArLZ6 {animation: eJ7d2BaArLZ6__m 1083ms linear infinite normal forwards}@keyframes eJ7d2BaArLZ6__m { 0% {d: path('M-155.322581,-140.880673C-164.875481,-130.957475,-206.471905,-89.792167,-219.347018,-24.608971C-222.557977,-8.133873,-223.872418,9.847507,-222.242949,29.035507C-214.260234,123.035507,-155.50539,241,1.155506,242C73,241,-27.781846,116,-49.734335,69C-71.686824,22,-119.583143,-16,-119.583143,-16C-119.583143,-16,-142.350673,-64.880673,-137.361465,-138.880673C-137.361465,-153.880673,-144.360114,-151.895303,-155.322581,-140.880673Z');animation-timing-function: cubic-bezier(0.1787,0.118,0.1943,0.87)} 42.289935% {d: path('M16.413,-197.369C-44.319,-112.515,-120.387,-145.799,-166.046,-24.094C-171.82,-8.703,-175.087,12.125,-173.684,31.313C-166.81,125.313,-123.78,241,11.13,242C73,241,-13.789,116,-32.694,69C-51.599,22,-92.845,-16,-92.845,-16C-92.845,-16,27.583,-121.369,31.88,-195.369C31.88,-210.369,24.968,-209.322,16.413,-197.369Z');animation-timing-function: cubic-bezier(0.426,0.074,0.833,0.833)} 57.156048% {d: path('M-69.356,-133.328C-104.37,-76.994,-142.656,-95.176,-186.988,-10.956C-198.514,4.263,-213.079,35.031,-215.576,54.093C-227.125,142.25,-188.32,243.216,6.695,242C73,241,-20.01,116,-40.27,69C-60.53,22,-90.012,-8.41,-90.012,-8.41C-90.012,-8.41,-33.953,-83.441,-52.096,-134.36C-59.583,-144.387,-64.178,-143.696,-69.356,-133.328Z');animation-timing-function: cubic-bezier(0.167,0.167,0.315,0.492)} 74.053555% {d: path('M-179.495,-51.09C-181.482,-31.381,-181.487,-19.774,-213.881,5.915C-232.793,20.913,-240.324,56.956,-235.313,75.55C-205.935,184.569,-123.064,242,1,242C73,241,-28,116,-50,69C-72,22,-86.374,1.337,-86.374,1.337C-86.374,1.337,-112.976,-34.738,-159.934,-56.016C-177.035,-59.658,-178.655,-59.423,-179.495,-51.09Z');animation-timing-function: cubic-bezier(0.587,0.435,0.833,0.833)} 80.424746% {d: path('M-184.628,-72.577C-196.103,-58.328,-205.766,-46.965,-221.137,-0.801C-231.734,20.672,-234.17,51.139,-232.841,66.203C-224.278,163.233,-156,241,1,242C73,241,-28,116,-50,69C-72,22,-93.126,-2.144,-93.126,-2.144C-93.126,-2.144,-106.048,-26.539,-131.448,-71.127C-136.253,-82.476,-162.4,-107.352,-184.628,-72.577Z');animation-timing-function: cubic-bezier(0.167,0.167,0.738,0.806)} 93.074792% {d: path('M-157.462,-130.233C-167.123,-119.647,-195.138,-74.551,-208.504,-16.294C-214.15,1.858,-216.878,21.932,-219.348,43.623C-230.139,138.373,-135.926,242.647,1,242C73,241,-28,116,-50,69C-72,22,-89.736,-51.718,-89.736,-51.718C-89.736,-51.718,-145.728,-43.816,-138.699,-129.769C-140.3,-143.552,-142.72,-149.157,-157.462,-130.233Z');animation-timing-function: cubic-bezier(0.796,0.59,0.713,1)} 99.445983% {d: path('M-158,-140C-166.755,-131.245,-207.814,-88.919,-220.178,-24.617C-223.349,-8.125,-224.633,9.812,-223,29C-215,123,-156,241,1,242C73,241,-28,116,-50,69C-72,22,-120,-16,-120,-16C-120,-16,-145,-64,-140,-138C-140,-153,-147,-151,-158,-140Z')} 100% {d: path('M-158,-140C-166.755,-131.245,-207.814,-88.919,-220.178,-24.617C-223.349,-8.125,-224.633,9.812,-223,29C-215,123,-156,241,1,242C73,241,-28,116,-50,69C-72,22,-120,-16,-120,-16C-120,-16,-145,-64,-140,-138C-140,-153,-147,-151,-158,-140Z')}} #eJ7d2BaArLZ7_tr {animation: eJ7d2BaArLZ7_tr__tr 1083ms linear infinite normal forwards}@keyframes eJ7d2BaArLZ7_tr__tr { 0% {transform: translate(266px,645px) rotate(-0.079378deg);animation-timing-function: cubic-bezier(0.3331,0.1434,0.667,1)} 23.268698% {transform: translate(266px,645px) rotate(-4deg);animation-timing-function: cubic-bezier(0.333,0,0.667,1)} 50.784857% {transform: translate(266px,645px) rotate(0deg);animation-timing-function: cubic-bezier(0.333,0,0.667,1)} 78.301016% {transform: translate(266px,645px) rotate(-4deg);animation-timing-function: cubic-bezier(0.333,0,0.667,1)} 99.445983% {transform: translate(266px,645px) rotate(0deg)} 100% {transform: translate(266px,645px) rotate(0deg)}} #eJ7d2BaArLZ8 {animation: eJ7d2BaArLZ8__m 1083ms linear infinite normal forwards}@keyframes eJ7d2BaArLZ8__m { 0% {d: path('M85.605352,-63.448768C85.605352,-63.448768,-62,233.307201,0.5,241.903601C63,250.5,155.536815,215.575091,197.691815,114.962242C218.705815,64.806977,210.325715,23.088339,198.452205,-10.061997C189.183003,-35.27851,177.416708,-50.079017,175.599195,-57.046188C172.754638,-63.157483,158.446527,-75.905503,158.242789,-62.369342C157.349685,-50.661144,143.022883,-35.35151,121.405376,-31.005339C98.561839,-28.975862,85.605352,-63.448768,85.605352,-63.448768Z')} 25.392428% {d: path('M86.865,-80.771C86.865,-80.771,-62,231.002,0.5,240.751C63,250.5,151.852,210.674,194.007,96.576C215.021,39.698,215.631,45.2,212.659,-6.2C210.92,-36.277,202.498,-34.739,194.72,-93.468C193.734,-100.91,199.655,-128.58,191.037,-126.568C174.372,-122.677,155.253,-123.25,120.274,-72.917C106.786,-53.509,86.865,-80.771,86.865,-80.771Z')} 52.908587% {d: path('M24.878,-50.615C24.878,-50.615,-62,232.87,0.5,241.685C63,250.499,139.834,234.32,193.866,126.323C218.724,76.639,221.529,55.084,213.603,24.405C206.787,-1.98,178.727,-23.78,136.77,-66.058C98.035,-105.089,112.112,-141.088,103.494,-139.268C86.829,-135.749,69.064,-108.362,73.38,-53.372C75.112,-31.307,24.878,-50.615,24.878,-50.615Z')} 76.177285% {d: path('M69.951,-25.997C69.951,-25.997,-62,233.5,0.5,242C63,250.5,193.258,233.443,204.355,125.966C211.257,59.119,174.252,60.778,153.238,17.111C142.815,-4.547,138.34,-13.408,137.432,-18.464C136.246,-25.067,129.574,-38.581,118.932,-21.464C112.401,-10.959,123.76,-19.942,93.516,7.132C75.908,22.894,69.951,-25.997,69.951,-25.997Z')} 91.043398% {d: path('M79.846,-48.908C79.846,-48.908,-62,233.5,0.5,242C63,250.5,170.723,222.444,200.311,119.942C218.136,25.207,202.096,28.741,186.425,-7.262C177.042,-27.723,160.318,-39.137,149.78,-44.347C147.44,-50.566,129.769,-57.895,134.205,-44.275C132.101,-32.588,135.367,-25.069,111.324,-14.906C89.887,-8.807,79.846,-48.908,79.846,-48.908Z')} 99.445983% {d: path('M85.5,-62C85.5,-62,-62,233.5,0.5,242C63,250.5,155.845,215.985,198,116.5C219.014,66.907,209.882,21.239,197.264,-10.385C187.365,-35.195,175.319,-51.362,174,-54C171,-60,155,-71.5,155.5,-57C155.926,-44.638,142,-28,121.5,-27.5C97.874,-26.924,85.5,-62,85.5,-62Z')} 100% {d: path('M85.5,-62C85.5,-62,-62,233.5,0.5,242C63,250.5,155.845,215.985,198,116.5C219.014,66.907,209.882,21.239,197.264,-10.385C187.365,-35.195,175.319,-51.362,174,-54C171,-60,155,-71.5,155.5,-57C155.926,-44.638,142,-28,121.5,-27.5C97.874,-26.924,85.5,-62,85.5,-62Z')}} #eJ7d2BaArLZ9_ts {animation: eJ7d2BaArLZ9_ts__ts 1083ms linear infinite normal forwards}@keyframes eJ7d2BaArLZ9_ts__ts { 0% {transform: translate(254px,419px) scale(1,1)} 21.144968% {transform: translate(254px,419px) scale(1,1);animation-timing-function: cubic-bezier(0.333,0,0.667,1)} 63.527239% {transform: translate(254px,419px) scale(1.05,0.86);animation-timing-function: cubic-bezier(0.333,0,0.667,1)} 80.424746% {transform: translate(254px,419px) scale(1,1)} 100% {transform: translate(254px,419px) scale(1,1)}} #eJ7d2BaArLZ10 {animation: eJ7d2BaArLZ10__m 1083ms linear infinite normal forwards}@keyframes eJ7d2BaArLZ10__m { 0% {d: path('M-47.047567,-307.001663C-57.982712,-307.245829,-59.707452,-300.991076,-53.226461,-293.912133C-41.747474,-279.704309,0.329945,-221.000657,-69.668305,-158.647139C-112.053735,-122.525983,-122.573,-81.752553,-125.526,-54.550553C-128.293,-29.055553,-122.5,-12.5,-122.5,-12.5C-122.5,-12.5,66,11,66,11C66,11,68.113,8.515,71.308,3.243C74.248,-1.607,78.596083,-8.725553,82.566083,-18.524553C93.219083,-44.819553,105.04195,-88.438602,101.984165,-156.881623C95.297354,-305.888958,-36.069908,-306.733239,-47.047567,-307.001663Z');animation-timing-function: cubic-bezier(0.2252,0.1977,0.741,0.6421)} 21.144968% {d: path('M40.397,-296.024C30.175,-298.953,31.477,-289.897,32.251,-281.95C27.005,-254.461,3.958,-193.518,-66.021,-176.759C-136,-160,-122.573,-80.769,-125.526,-53.567C-128.293,-28.072,-122.5,-12.5,-122.5,-12.5C-122.5,-12.5,66,11,66,11C66,11,68.113,8.515,71.308,3.243C74.248,-1.607,84.007,-7.742,87.977,-17.541C98.63,-43.836,114.289,-72.765,112.806,-144.584C109.563,-293.672,51.129,-292.804,40.397,-296.024Z');animation-timing-function: cubic-bezier(0.351,0.489,0.405,0.569)} 42.289935% {d: path('M65,-295C55.449,-300.458,55.75,-281.75,53.25,-273.5C40.148,-230.264,13,-306,-16,-205C-31.179,-152.135,-122.573,-79.842,-125.526,-52.64C-128.293,-27.145,-122.5,-12.5,-122.5,-12.5C-122.5,-12.5,66,11,66,11C66,11,68.113,8.515,71.308,3.243C74.248,-1.607,83.739,-11.649,93.074,-16.614C122,-32,137,-55,137,-130C137,-279.164,75.5,-289,65,-295Z');animation-timing-function: cubic-bezier(0.669,0.484,0.797,0.717)} 63.527239% {d: path('M57.158,-254.991C56.25,-265.75,56.25,-276.75,47.636,-264.855C42.75,-259.5,40,-258,22.662,-242.517C-9,-212.75,-125,-175,-125.526,-53.754C-125.637,-28.11,-122.5,-12.5,-122.5,-12.5C-122.5,-12.5,66,11,66,11C66,11,68.113,8.515,71.308,3.243C74.248,-1.607,82.977,-7.929,86.947,-17.728C97.6,-44.023,43,-43,77.746,-131.926C116.797,-231.87,62.25,-231.75,57.158,-254.991Z');animation-timing-function: cubic-bezier(0.533,0.743,0.833,0.853)} 80.424746% {d: path('M-2.819,-291.209C-10,-314,-3.5,-334,-6.269,-334.099C-22,-331.5,-19,-297.5,-54.71,-182.353C-81.5,-95.968,-155,-121,-125.526,-54.365C-125,-27,-122.5,-12.5,-122.5,-12.5C-122.5,-12.5,93,10.661,93,10.661C93,10.661,96.113,18.176,99.308,12.904C102.248,8.054,107.62,18.122,111.59,8.323C122.243,-17.972,180.071,-108.735,90.768,-174.891C26.5,-222.5,6,-264,-2.819,-291.209Z');animation-timing-function: cubic-bezier(0.083,0.073,0.833,0.833)} 88.919668% {d: path('M-27.555,-292.419C-34,-298.75,-37.5,-291,-39.214,-278.564C-41,-269,-58,-194,-81.958,-171.834C-105.5,-147,-139.628,-102.437,-125.526,-54.495C-126.561,-28.017,-122.5,-12.5,-122.5,-12.5C-122.5,-12.5,80.201,10.822,80.201,10.822C80.201,10.822,82.314,8.337,85.509,3.065C88.449,-1.785,93.102,-8.848,97.072,-18.647C107.725,-44.942,141.475,-113.464,92.988,-180.558C51.5,-247.5,-16,-277.25,-27.555,-292.419Z');animation-timing-function: cubic-bezier(0.167,0.167,0.459,0.572)} 99.445983% {d: path('M-55,-308C-66,-308,-68,-302,-61,-295C-48,-282,0,-223.5,-70,-157C-109.876,-119.118,-122.573,-81.842,-125.526,-54.64C-128.293,-29.145,-122.5,-12.5,-122.5,-12.5C-122.5,-12.5,66,11,66,11C66,11,68.113,8.515,71.308,3.243C74.248,-1.607,78.104,-8.815,82.074,-18.614C92.727,-44.909,104.201,-89.864,101,-158C94,-307,-44,-308,-55,-308Z')} 100% {d: path('M-55,-308C-66,-308,-68,-302,-61,-295C-48,-282,0,-223.5,-70,-157C-109.876,-119.118,-122.573,-81.842,-125.526,-54.64C-128.293,-29.145,-122.5,-12.5,-122.5,-12.5C-122.5,-12.5,66,11,66,11C66,11,68.113,8.515,71.308,3.243C74.248,-1.607,78.104,-8.815,82.074,-18.614C92.727,-44.909,104.201,-89.864,101,-158C94,-307,-44,-308,-55,-308Z')}} #eJ7d2BaArLZ11_tr {animation: eJ7d2BaArLZ11_tr__tr 1083ms linear infinite normal forwards}@keyframes eJ7d2BaArLZ11_tr__tr { 0% {transform: translate(260px,653px) rotate(0.039914deg);animation-timing-function: cubic-bezier(0.3331,0.0874,0.667,1)} 42.289935% {transform: translate(260px,653px) rotate(6deg);animation-timing-function: cubic-bezier(0.333,0,0.667,1)} 76.177285% {transform: translate(260px,653px) rotate(-4.556deg);animation-timing-function: cubic-bezier(0.333,0,0.667,1)} 99.445983% {transform: translate(260px,653px) rotate(0deg)} 100% {transform: translate(260px,653px) rotate(0deg)}} #eJ7d2BaArLZ12 {animation: eJ7d2BaArLZ12__m 1083ms linear infinite normal forwards}@keyframes eJ7d2BaArLZ12__m { 0% {d: path('M18.906745,-107.955811C-23.325049,-74.48908,-37.746087,-42.885272,-50.147279,2.979216C-62.427665,49.199534,-41.947648,65.65334,-39.321371,82.240733C-36.698779,98.80775,-46.436621,105.850204,-57.672201,102.158638C-71.795051,97.306012,-84.97558,77.014667,-89.452354,65.125981C-93.499553,53.095944,-98.28326,65.936672,-98.529728,67.303274C-98.776197,68.669876,-110.10484,87.189107,-113.836544,115.516718C-123.646097,177.722408,-78.891117,230.254731,-1.5,233C77.501061,235.695138,97.222464,171.078352,100.239155,161.0836C103.90783,149.131223,117.52409,104.273075,59.450226,44.751942C0.798905,-17.090852,21.640818,-79.862386,30.373641,-103.789143C39.064316,-127.791209,27.228245,-115.672301,18.906745,-107.955811Z')} 35.918744% {d: path('M8.873,-132.578C13.46,-116.587,25.744,-91.684,31.927,-73.481C40.274,-48.904,43.503,-41.688,48.265,-15.166C52.961,10.991,30.744,27.208,-1.389,28.733C-33.268,30.246,-59.193,-15.759,-80.19,-8.852C-93.492,-4.477,-86.161,22.583,-90.576,47.063C-94.991,71.543,-111.878,98.844,-111.072,124.256C-109.204,181.484,-51.68,234.563,-1.5,233C77.519,230.539,100.985,163.947,104.284,154.041C119.262,109.068,109.475,66.609,100.891,32.1C81.963,-43.997,32.479,-111.361,19.78,-134.049C6.326,-158.086,5.719,-143.956,8.873,-132.578Z')} 67.682364% {d: path('M56.694,-12.505C54.792,26.109,48.302,2.468,23.174,3.342C8.57,3.85,16.703,52.931,-11.164,43.558C-42.713,39.902,-23.606,-1.182,-15.441,-37.792C-7.378,-64.441,15.152,-98.459,3.109,-91.241C-44.129,-63.176,-72.155,-23.002,-86.898,1.47C-101.029,24.926,-117.987,63.115,-120.944,124.055C-122.342,184.614,-85.309,230,-1.542,233C82.225,236,108.204,164.208,110.626,154.041C117.753,117.231,120.741,106.689,116.445,71.381C112.348,41.627,108.609,30.08,95.144,7.392C80.878,-16.645,53.35,-23.883,56.694,-12.505Z')} 86.703601% {d: path('M34.378,-68.902C6.617,-32.757,-5.579,-23.013,-23.73,5.837C-37.671,34.54,-21.519,64.372,-31.166,70.223C-42.285,78.36,-40.042,65.827,-42.776,48.783C-47.395,34.986,-31.538,3.756,-38.455,-1.157C-51.148,4.739,-51.922,26.925,-77.763,55.442C-90.09,69.045,-115.471,76.908,-121.727,117.397C-128.586,179.121,-82.424,230,-1.517,233C79.39,236,101.481,168.583,104.25,158.516C108.901,137.792,119.096,106.575,80.778,55.852C42.539,7.35,56.044,-34.768,56.658,-58.243C56.952,-82.258,38.44,-77.953,34.378,-68.902Z')} 99.445983% {d: path('M19.5,-106.5C-25.5,-72,-41.5,-40,-55,7.5C-68.5,55,-47,72,-44.5,88C-42,104,-51,110.5,-61,106.5C-74.073,101.271,-86.5,82.5,-90,69.5C-93.5,56.5,-99,68.5,-99,68.5C-99,68.5,-110,86.5,-114,115C-124.5,177.5,-80.5,230,-1.5,233C77.5,236,97,171.5,100,161.5C103,151.5,118,106.5,57,45.5C-4,-15.5,21,-78,31,-102C41,-126,28.5,-114,19.5,-106.5Z')} 100% {d: path('M19.5,-106.5C-25.5,-72,-41.5,-40,-55,7.5C-68.5,55,-47,72,-44.5,88C-42,104,-51,110.5,-61,106.5C-74.073,101.271,-86.5,82.5,-90,69.5C-93.5,56.5,-99,68.5,-99,68.5C-99,68.5,-110,86.5,-114,115C-124.5,177.5,-80.5,230,-1.5,233C77.5,236,97,171.5,100,161.5C103,151.5,118,106.5,57,45.5C-4,-15.5,21,-78,31,-102C41,-126,28.5,-114,19.5,-106.5Z')}} #eJ7d2BaArLZ21_tr {animation: eJ7d2BaArLZ21_tr__tr 1083ms linear infinite normal forwards}@keyframes eJ7d2BaArLZ21_tr__tr { 0% {transform: translate(135.33781px,207.03926px) rotate(720deg);animation-timing-function: cubic-bezier(0.415,0.08,0.115,0.955)} 100% {transform: translate(135.33781px,207.03926px) rotate(618.732468deg)}} #eJ7d2BaArLZ22_tr {animation: eJ7d2BaArLZ22_tr__tr 1083ms linear infinite normal forwards}@keyframes eJ7d2BaArLZ22_tr__tr { 0% {transform: translate(11.12px,29.9px) rotate(-720deg);animation-timing-function: cubic-bezier(0.415,0.08,0.115,0.955)} 100% {transform: translate(11.12px,29.9px) rotate(-618.732468deg)}}
</style>
  </defs>
  <g id="eJ7d2BaArLZ2" transform="matrix(1, 0, 0, 1, 237.77152680155348, 65.73817351233271)" clip-path="url(#eJ7d2BaArLZ13)">
    <g transform="translate(255 489)">
      <ellipse rx="142.293" ry="142.293" fill="url(#eJ7d2BaArLZ4-fill)" stroke-width="0"/>
    </g>
    <g id="eJ7d2BaArLZ5_tr" transform="translate(266,645) rotate(-1.977769)">
      <g transform="translate(0,-216)">
        <path id="eJ7d2BaArLZ6" d="M-155.322581,-140.880673c-9.5529,9.923198-51.149324,51.088506-64.024437,116.271702-3.210959,16.475098-4.5254,34.456478-2.895931,53.644478C-214.260234,123.035507,-155.50539,241,1.155506,242C73,241,-27.781846,116,-49.734335,69s-69.848808-85-69.848808-85-22.76753-48.880673-17.778322-122.880673c0-15-6.998649-13.01463-17.961116-2Z" fill="url(#eJ7d2BaArLZ6-fill)" stroke="url(#eJ7d2BaArLZ6-stroke)" stroke-width="4"/>
      </g>
    </g>
    <g id="eJ7d2BaArLZ7_tr" transform="translate(266,645) rotate(-0.079378)">
      <g transform="translate(0,-216)">
        <path id="eJ7d2BaArLZ8" d="M85.605352,-63.448768c0,0-147.605352,296.755969-85.105352,305.352369s155.036815-26.32851,197.191815-126.941359c21.014-50.155265,12.6339-91.873903.76039-125.024239-9.269202-25.216513-21.035497-40.01702-22.85301-46.984191-2.844557-6.111295-17.152668-18.859315-17.356406-5.323154-.893104,11.708198-15.219906,27.017832-36.837413,31.364003-22.843537,2.029477-35.800024-32.443429-35.800024-32.443429Z" fill="url(#eJ7d2BaArLZ8-fill)" stroke="url(#eJ7d2BaArLZ8-stroke)" stroke-width="4"/>
      </g>
    </g>
    <g id="eJ7d2BaArLZ9_ts" transform="translate(254,419) scale(1,1)">
      <g transform="translate(12,10)">
        <path id="eJ7d2BaArLZ10" d="M-47.047567,-307.001663c-10.935145-.244166-12.659885,6.010587-6.178894,13.08953c11.478987,14.207824,53.556406,72.911476-16.441844,135.264994-42.38543,36.121156-52.904695,76.894586-55.857695,104.096586-2.767,25.495,3.026,42.050553,3.026,42.050553s188.5,23.5,188.5,23.5s2.113-2.485,5.308-7.757c2.94-4.85,7.288083-11.968553,11.258083-21.767553c10.653-26.295,22.475867-69.914049,19.418082-138.35707-6.686811-149.007335-138.054073-149.851616-149.031732-150.12004Z" fill="url(#eJ7d2BaArLZ10-fill)" stroke="url(#eJ7d2BaArLZ10-stroke)" stroke-width="4"/>
      </g>
    </g>
    <g id="eJ7d2BaArLZ11_tr" transform="translate(260,653) rotate(0.039914)">
      <g transform="translate(6,-224)">
        <path id="eJ7d2BaArLZ12" d="M18.906745,-107.955811c-42.231794,33.466731-56.652832,65.070539-69.054024,110.935027-12.280386,46.220318,8.199631,62.674124,10.825908,79.261517c2.622592,16.567017-7.11525,23.609471-18.35083,19.917905-14.12285-4.852626-27.303379-25.143971-31.780153-37.032657-4.047199-12.030037-8.830906.810691-9.077374,2.177293s-11.575112,19.885833-15.306816,48.213444C-123.646097,177.722408,-78.891117,230.254731,-1.5,233c79.001061,2.695138,98.722464-61.921648,101.739155-71.9164c3.668675-11.952377,17.284935-56.810525-40.788929-116.331658-58.651321-61.842794-37.809408-124.614328-29.076585-148.541085c8.690675-24.002066-3.145396-11.883158-11.466896-4.166668Z" fill="url(#eJ7d2BaArLZ12-fill)" stroke="url(#eJ7d2BaArLZ12-stroke)" stroke-width="4"/>
      </g>
    </g>
    <clipPath id="eJ7d2BaArLZ13">
      <rect width="500" height="690" rx="0" ry="0" fill="none" stroke-width="0"/>
    </clipPath>
  </g>
  <g transform="matrix(2.8571429252624507, 0, 0, 2.857142925262451, 514.2856983209582, 799.9999887293029)" opacity="0.7">
    <path d="M100.296,3.59097h1.86105v8.05706h-1.86105v-8.05706Zm.93793-1.32776c-.33752,0-.62035-.10561-.84864-.31684-.22829-.22129-.34251-.49288-.34251-.81477s.11422-.58843.34251-.79967c.22829-.22129.51112-.33193.84864-.33193s.62035.10562.84864.31685c.22829.20117.34251.45766.34251.76949c0,.33195-.11422.61358-.34251.84494-.21832.22129-.5013.33193-.84864.33193Zm17.50762,4.76743v4.61696h-1.86105v-4.37556c0-.70411-.16378-1.23218-.49133-1.58425-.32755-.3621-.7941-.54316-1.39949-.54316-.68501,0-1.2259.21123-1.62294.63369-.39705.41241-.59557,1.0109-.59557,1.7955v4.07379h-1.86105v-11.19538h1.86105v4.07379c.30776-.33195.68486-.58341,1.13162-.75441.45658-.18106.96271-.27159,1.51855-.27159c1.00259,0,1.80651.29673,2.41206.8902.60539.59346.90817,1.4736.90817,2.64042h-.00002ZM107.5923,11.7549c-.87342,0-1.54846-.23136-2.02483-.69407-.47652-.46269-.71478-1.13663-.71478-2.02181v-3.87763h-1.3102v-1.50882h1.3102v-1.84075h1.8612v1.84075h2.12908v1.50882h-2.12908v3.83237c0,.39231.09428.69407.28283.9053.18855.20117.46156.30176.81888.30176.41684,0,.76433-.11065,1.04218-.33195l.52109,1.34285c-.21832.18106-.48634.31685-.80392.40738-.30776.09053-.63531.13579-.98265.13579v.00001Zm-13.2957-.10591L92.24186,6.09656L90.1575,11.64899h-1.78672L85.45259,3.59193h1.75696l2.09931,5.94472l2.18861-5.94472h1.56327l2.14403,5.97489l2.15884-5.97489h1.65271l-2.93315,8.05706h-1.78657ZM80.71172,7.66404c0,.13076-.00982.31685-.02976.55826h-6.23841c.10923.59347.39221,1.06623.84879,1.41829.4664.34199,1.04218.51299,1.72704.51299.87342,0,1.59303-.2917,2.15884-.87511l.99761,1.16179c-.35731.43252-.80906.75943-1.35492.98072s-1.16138.33195-1.84625.33195c-.87342,0-1.64274-.17603-2.30766-.52808-.66507-.35206-1.18118-.83991-1.54846-1.46355-.35731-.63369-.53605-1.34787-.53605-2.14251c0-.78458.17375-1.48869.52109-2.11234.35731-.63371.84864-1.12657,1.47398-1.47863s1.33015-.52808,2.11427-.52808c.77415,0,1.464.17603,2.06955.52808.61537.34199,1.09189.82985,1.42926,1.46354.34749.62364.52109,1.34788.52109,2.1727l-.00001-.00002ZM76.69183,5.00853c-.59557,0-1.1017.18106-1.5187.54318-.40687.35206-.6551.82481-.74439,1.41829h4.51122c-.07932-.58341-.32256-1.05617-.72943-1.41829-.40702-.36212-.9133-.54318-1.5187-.54318ZM69.01645,11.6476v-1.04108c-.30776.38223-.68985.66889-1.14643.86002-.44676.19112-.94291.28668-1.48893.28668-.76433,0-1.45403-.17101-2.06955-.51301-.60539-.34199-1.08191-.82481-1.42925-1.44846-.34749-.63369-.52109-1.35793-.52109-2.17268s.17359-1.53397.52109-2.1576c.34734-.62364.82386-1.10646,1.42925-1.44846C64.92706,3.671,65.61676,3.5,66.38109,3.5c.52607,0,1.00743.09053,1.44421.27159s.8089.45265,1.11666.81477v-4.13414h1.86105v11.19538h-1.78656Zm-.35731-2.70078c.20834-.38223.31259-.82481.31259-1.32774s-.10425-.94553-.31259-1.32776c-.2085-.38223-.49133-.67394-.84864-.87511-.35746-.21125-.75935-.31685-1.2061-.31685-.4466,0-.84864.10561-1.20595.31685-.35731.20117-.64014.49288-.84864.87511s-.31259.82481-.31259,1.32776.1041.94551.31259,1.32774.49132.67897.84864.8902c.35731.20118.75935.30176,1.20595.30176.44676,0,.84864-.10058,1.2061-.30176.35731-.21123.64014-.50796.84864-.8902ZM56.93698,3.49973c1.1712,0,2.06456.28667,2.67993.86002.62534.56329.93793,1.41829.93793,2.56499v4.72257h-1.75681v-.98072c-.22829.35206-.55584.62363-.98265.81475-.41699.18106-.92312.27159-1.5187.27159s-1.11666-.10059-1.56327-.30176c-.44671-.21125-.79411-.49791-1.04225-.86003-.23823-.37217-.35733-.78961-.35733-1.25231c0-.72424.26304-1.30262.7891-1.73514.536-.44259,1.37467-.66388,2.51626-.66388h2.05459v-.1207c0-.56329-.16876-.99581-.50628-1.29757-.32755-.30178-.81888-.45265-1.47398-.45265-.4466,0-.88837.0704-1.32501.21123-.42681.14083-.78911.33696-1.08691.58844l-.72956-1.37302c.41689-.32189.91812-.56832,1.50373-.73932s1.20595-.2565,1.8612-.2565l.00001.00001Zm-.25322,6.88017c.46655,0,.8784-.10562,1.23587-.31685.36714-.22129.62519-.53312.77415-.93545v-.93547h-1.92073c-1.07194,0-1.60784.35709-1.60784,1.07126c0,.34199.13386.61357.40188.81475s.6403.30176,1.11666.30176h.00001Zm-10.69116.06065h-.86354l-3.42441-5.7033v6.91036h-1.8462v-10.56169h1.59309l4.13907,7.00089l4.06463-7.00089h1.59309l.01488,10.56169h-1.8313l-.0149-7.00089-3.42441,5.79383Zm63.34121,18.8993v15.15h-3.372v-1.962c-.57764.71189-1.32435,1.2678-2.172,1.617-.90563.36793-1.87555.55151-2.853.54-1.37977.02378-2.74245-.30785-3.957-.963-1.13745-.62625-2.07375-1.56255-2.7-2.7-1.30391-2.56373-1.30391-5.59627,0-8.16.6281-1.13606,1.56394-2.0719,2.7-2.7c1.21546-.65275,2.57751-.98423,3.957-.963.92501-.00857,1.84259.16578,2.7.513.8172.33509,1.54983.84741,2.145,1.5v-.762c0-.28643.11378-.56114.31633-.76367s.47724-.31633.76367-.31633l2.472-.03Zm-4.767,11.01c1.70241-1.9736,1.70241-4.8964,0-6.87-1.79985-1.74394-4.65915-1.74394-6.459,0-1.68467,1.98016-1.68467,4.88984,0,6.87.84101.87157,2.01145,1.34672,3.222,1.308c1.21374.03854,2.38799-.43377,3.237-1.302v-.006Zm17.94,3.324c-.4506.35546-.96927.61479-1.524.762-.61408.17233-1.2492.25816-1.887.255-1.41013.09088-2.79902-.37927-3.864-1.308-.9622-1.0234-1.45181-2.403-1.35-3.804v-13.59h2.469c.28643,0,.56114.11378.76367.31633s.31633.47724.31633.76367v2.379h4.047v2.853h-4.047v7.2c-.04376.61441.15433,1.2216.552,1.692.40613.41048.96838.62774,1.545.597.22613.00135.45196-.01672.675-.054.80958-.16952,1.6251.26156,1.941,1.026l.363.912Zm5.079.027c-1.20043-.63362-2.19844-1.59212-2.88-2.766-1.3796-2.49392-1.3796-5.52208,0-8.016.68541-1.16705,1.68279-2.11975,2.88-2.751c2.61457-1.32565,5.70443-1.32565,8.319,0c1.19702.63151,2.19433,1.58416,2.88,2.751c1.3796,2.49392,1.3796,5.52208,0,8.016-.68182,1.17368-1.67976,2.13211-2.88,2.766-2.61457,1.32565-5.70443,1.32565-8.319,0Zm7.392-3.369c1.70241-1.9736,1.70241-4.8964,0-6.87-1.79985-1.74394-4.65915-1.74394-6.459,0-1.68467,1.98016-1.68467,4.88984,0,6.87.84101.87157,2.01145,1.34672,3.222,1.308c1.21059.04404,2.38438-.42048,3.237-1.281v-.027Zm17.022-11.16v3.372c-.27077-.05406-.54592-.08318-.822-.087-1.19439-.06706-2.36247.36798-3.222,1.2-.83467.95959-1.25439,2.2112-1.167,3.48v7.353h-3.552v-15.15h2.298c.28643,0,.56113.11379.76367.31633s.31633.47724.31633.76367v1.134c1.014-1.588,2.809-2.382,5.385-2.382Zm-107.022,15.042c-.99952-.24447-1.95011-.65737-2.811-1.221l.621-1.233c.3744-.7399,1.2508-1.07278,2.022-.768.37389.15524.75654.28847,1.146.399.91807.26884,1.86939.4072,2.826.411c2.118,0,3.179-.557,3.183-1.671.01432-.51063-.31898-.96614-.81-1.107-.84397-.28199-1.7129-.4829-2.595-.6-1.03337-.14877-2.05419-.3744-3.054-.675-.77526-.24876-1.47221-.69547-2.022-1.296-.61143-.71083-.9214-1.63215-.864-2.568-.02956-1.38298.6493-2.68527,1.8-3.453c1.44674-.93234,3.1502-1.38576,4.869-1.296c1.05397.00022,2.10457.11896,3.132.354.90209.18897,1.76874.51902,2.568.978l-.675,1.296c-.363.73034-1.21602,1.07232-1.983.795-.9848-.3605-2.02631-.54137-3.075-.534-.81824-.04818-1.63519.11397-2.373.471-.48302.22293-.79719.70118-.81,1.233-.01041.54748.34149,1.03623.864,1.2.87464.31646,1.77934.54264,2.7.675c1.00825.15143,2.00395.37704,2.979.675.77042.2345,1.46702.66444,2.022,1.248.59601.69214.89656,1.59055.837,2.502.02092,1.37985-.67962,2.67062-1.848,3.405-1.50499.92728-3.25673,1.37412-5.022,1.281-1.22607-.00259-2.44614-.17112-3.627-.501Zm44.883-14.874v12.858c0,5.336-2.724,8.004-8.172,8.004-1.40084.00811-2.79608-.17765-4.146-.552-1.17835-.30549-2.28055-.85199-3.237-1.605l1.026-1.713c.30567-.49262.95204-.6455,1.446-.342.51805.29338,1.06493.53264,1.632.714.99571.32459,2.03673.48864,3.084.486c1.664,0,2.884-.378,3.66-1.134.84612-.94702,1.26781-2.19906,1.167-3.465v-.795c-.61114.66419-1.36796,1.17763-2.211,1.5-.91436.34924-1.88627.52327-2.865.513-1.35633.0185-2.69615-.29893-3.9-.924-1.14224-.59206-2.09694-1.49066-2.757-2.595-.68212-1.15978-1.02996-2.48573-1.005-3.831-.02691-1.34077.32116-2.66242,1.005-3.816.65985-1.09557,1.61266-1.98501,2.751-2.568c1.20751-.61258,2.54617-.9215,3.9-.9c1.02537-.01399,2.04386.16934,3,.54.88145.34534,1.65934.91145,2.259,1.644v-.936c0-.28643.11379-.56114.31633-.76367s.47724-.31633.76367-.31633l2.283-.003Zm-4.782,10.263c.86632-.80774,1.34014-1.95125,1.299-3.135.03647-1.17094-.43625-2.30022-1.296-3.096-1.9293-1.58787-4.7127-1.58787-6.642,0-.85642.7974-1.32577,1.92647-1.287,3.096-.04421,1.18189.4251,2.3251,1.287,3.135c1.92186,1.60535,4.71714,1.60535,6.639,0Zm-12.057-10.278l-5.892,13.743c-.36888.86087-1.21443,1.41985-2.151,1.422h-1.902l5.763-13.404.3-.675c.28294-.65223.92704-1.07338,1.638-1.071l2.244-.015Zm-10.785,13.263l-5.889-13.236h2.511c.71819-.00121,1.36666.42953,1.644,1.092l3.492,8.046-1.758,4.098Z" clip-rule="evenodd" fill="#fff" fill-rule="evenodd"/>
    <g transform="matrix(.3 0 0 0.3-18.12243-25.905895)" mask="url(#eJ7d2BaArLZ20)">
      <path d="M129.5,243.58426c-8.76,2.18-20.08,1.79-37.33-19.63-2.35828-2.9281-4.38181-6.36293-5.93416-10.02849c3.00814.97918,6.21933,1.50849,9.55416,1.50849c17.03246,0,30.84-13.80754,30.84-30.84c0-5.42003-1.39819-10.5135-3.85355-14.93939c22.54068-3.14789,48.24701-1.18662,56.01355,6.19939c12.32,11.73-14.11,59.03-49.29,67.73Z" fill="#fff"/>
      <mask id="eJ7d2BaArLZ20" mask-type="alpha" x="-150%" y="-150%" height="400%" width="400%">
        <g id="eJ7d2BaArLZ21_tr" transform="translate(135.33781,207.03926) rotate(720)">
          <path d="M78.37454,207.03926c0-31.45994,25.50332-56.96327,56.96327-56.96327s56.96327,25.50332,56.96327,56.96327-25.50332,56.96327-56.96327,56.96327-56.96327-25.50332-56.96327-56.96327Zm89.23546-4.715c-.16775-.93858-1.05962-1.56734-2-1.41h-.06c-4.15414.71597-8.30501-1.28258-10.33588-4.97651s-1.49439-8.26953,1.33588-11.39349c.33036-.3301.51598-.77798.51598-1.245s-.18561-.9149-.51598-1.245l-.11-.1c-2.70671-2.31865-5.78705-4.16144-9.11-5.45-.43613-.17299-.92328-.16468-1.35326.02308s-.76719.53944-.93674.97692v.06c-1.40364,3.98681-5.18789,6.63916-9.41438,6.59848s-7.95898-2.76539-9.28562-6.77848c-.13404-.44903-.44162-.82607-.85458-1.04757s-.8972-.26916-1.34542-.13243h-.11c-3.26392,1.21388-6.31249,2.94242-9.03,5.12-.37331.28196-.619.70095-.6828,1.16441s.05956.93325.3428,1.30559l.1.12c2.68294,3.2243,3.03751,7.79124.8844,11.39101s-6.34454,5.44763-10.4544,4.60899c-.45624-.10445-.9353-.02286-1.33126.22672s-.67619.6466-.77874,1.10328v.09c-.55386,3.43784-.55386,6.94217,0,10.38.06433.46505.31181.88512.68739,1.16681s.84815.40164,1.31261.33319h.11c4.15414-.71597,8.30501,1.28258,10.33588,4.97651s1.49439,8.26953-1.33588,11.39349c-.33036.3301-.51598.77798-.51598,1.245s.18561.9149.51598,1.245l.11.1c2.70914,2.30768,5.7893,4.14023,9.11,5.42.43613.17299.92328.16468,1.35326-.02308s.76719-.53944.93674-.97692v-.06c1.40815-3.97311,5.18194-6.61524,9.39704-6.57914s7.94308,2.7425,9.28296,6.73914c.13404.44903.44162.82607.85458,1.04757s.8972.26916,1.34542.13243h.11c3.30375-1.22537,6.38706-2.97809,9.13-5.19.37164-.28659.61343-.70974.67164-1.17542s-.07198-.93533-.36164-1.30458l-.1-.12c-2.83001-3.19588-3.28744-7.84789-1.13412-11.53378s6.43037-5.57199,10.60412-4.67622c.93041.23341,1.87421-.33019,2.11-1.26v-.09c.5347-3.37898.5347-6.82102,0-10.2Zm-41.67,4.69c0-5.197,4.213-9.41,9.41-9.41s9.41,4.213,9.41,9.41-4.213,9.41-9.41,9.41-9.41-4.213-9.41-9.41Z" transform="translate(-135.33781,-207.03926)" fill="#d2dbed" stroke-width="0"/>
        </g>
      </mask>
    </g>
    <g id="eJ7d2BaArLZ22_tr" transform="translate(11.12,29.9) rotate(-720)">
      <path d="M116.33,114.77l-3.64-2.18c-1.023263-.593162-1.652267-1.687247-1.65-2.87v-2c-.002267-1.182753.626737-2.276838,1.65-2.87l3.64-2.18c.762973-.435835,1.321342-1.157154,1.552062-2.005003s.114855-1.752643-.322062-2.514997v0l-1.74-3c-.935215-1.566004-2.961067-2.080293-4.53-1.15v0l-3.68,2.18c-1.024118.591275-2.285882.591275-3.31,0l-1.7-1c-1.023263-.593162-1.652267-1.687247-1.65-2.87v-4.38c0-.877867-.348731-1.719778-.969477-2.340523s-1.462656-.969477-2.340523-.969477h-3.47c-.877867,0-1.719778.348731-2.340523.969477s-.969477,1.462656-.969477,2.340523s0,.06,0,.09v4.35c.002267,1.182753-.626737,2.276838-1.65,2.87l-1.68,1c-1.024118.591275-2.285882.591275-3.31,0L80.56,94c-.767143-.448916-1.682599-.570435-2.540292-.337203s-1.585543.801616-2.019708,1.577203v0l-1.74,3c-.443418.7584-.567152,1.661967-.343945,2.511654s.775044,1.575787,1.533945,2.018346v0L79.1,105c1.023263.593162,1.652267,1.687247,1.65,2.87v2c.002267,1.182753-.626737,2.276838-1.65,2.87l-3.61,2.18c-1.578036.917936-2.114924,2.940216-1.2,4.52v0l1.74,3c.917936,1.578036,2.940216,2.114924,4.52,1.2v0l3.66-2.18c1.024118-.591275,2.285882-.591275,3.31,0l1.68,1c1.023263.593162,1.652267,1.687247,1.65,2.87v3.67c0,.877867.348731,1.719778.969477,2.340523s1.462656.969477,2.340523.969477h3.46c.877867,0,1.719778-.348731,2.340523-.969477s.969477-1.462656.969477-2.340523v0-3.77c-.002267-1.182753.626737-2.276838,1.65-2.87l1.7-1c1.024118-.591275,2.285882-.591275,3.31,0l3.66,2.18c1.5824.913239,3.605483.371662,4.52-1.21v0l1.74-3c.938839-1.568495.428452-3.601089-1.14-4.54Zm-20.49.91c-3.865993,0-7-3.134007-7-7s3.134007-7,7-7s7,3.134007,7,7v0c0,3.865993-3.134007,7-7,7v0Z" transform="scale(0.3,0.3) translate(-95.902813,-108.465)" fill="#fff"/>
    </g>
  </g>
</svg>