
<svg width="25" height="25" viewBox="0 0 25 25" fill="none" xmlns="http://www.w3.org/2000/svg">
<g clip-path="url(#clip0_11_7050)">
<path d="M17.5504 24.3108L22.0888 20.1192C22.392 19.8392 22.392 19.3602 22.0888 19.0802L17.5504 14.8885C17.0974 14.4702 16.3633 14.7915 16.3633 15.4081V17.1932H9.5702C9.25098 17.1932 8.99219 17.452 8.99219 17.7713V21.428C8.99219 21.7472 9.25098 22.006 9.5702 22.006H16.3633V23.7912C16.3633 24.4079 17.0974 24.7292 17.5504 24.3108Z" fill="#48ACFF"/>
<path d="M22.0887 20.1195L17.5503 24.3111C17.0975 24.7292 16.3634 24.4081 16.3634 23.7912V22.8987C18.5314 22.5584 20.1893 20.682 20.1893 18.4184C20.1893 17.983 20.1279 17.562 20.0136 17.1636L22.0887 19.0803C22.392 19.3601 22.392 19.8392 22.0887 20.1195Z" fill="#229BFF"/>
<path d="M22.0887 20.1194L21.8342 20.3543H8.99231V17.7715C8.99231 17.4522 9.25106 17.193 9.57028 17.193H16.3634V15.408C16.3634 14.7916 17.0975 14.47 17.5503 14.8886L22.0887 19.0802C22.392 19.36 22.392 19.8391 22.0887 20.1194Z" fill="#229BFF"/>
<path d="M7.44959 10.1114L2.91111 5.91977C2.60792 5.63974 2.60792 5.16072 2.91111 4.88069L7.44954 0.68908C7.90254 0.270721 8.63661 0.592002 8.63661 1.2086V2.99378H15.4297C15.749 2.99378 16.0077 3.25258 16.0077 3.5718V7.22856C16.0077 7.54778 15.749 7.80658 15.4297 7.80658H8.63661V9.59177C8.63665 10.2085 7.90259 10.5297 7.44959 10.1114Z" fill="#FF4881"/>
<path d="M16.0076 5.55678V3.57162C16.0076 3.2524 15.7488 2.99365 15.4296 2.99365H15.0223C15.0223 3.93162 14.27 5.20011 12.6392 5.55678H16.0076Z" fill="#FE255F"/>
<path d="M12.6777 2.9939H8.58962C8.13357 2.9939 7.76392 3.3636 7.76392 3.8196C7.76392 4.27565 8.13362 4.6453 8.58962 4.6453H12.6777C13.1337 4.6453 13.5034 4.2756 13.5034 3.8196C13.5034 3.3636 13.1337 2.9939 12.6777 2.9939Z" fill="#FC709B"/>
<path d="M10.8656 2.9939H10.0368C9.58072 2.9939 9.21106 3.3636 9.21106 3.8196C9.21106 4.27565 9.58076 4.6453 10.0368 4.6453H10.8656C11.3217 4.6453 11.6913 4.2756 11.6913 3.8196C11.6914 3.3636 11.3217 2.9939 10.8656 2.9939Z" fill="#F7A6C1"/>
<path d="M23.0937 19.4431H1.90625C1.12958 19.4431 0.5 18.8136 0.5 18.0369V6.96289C0.5 6.18622 1.12958 5.55664 1.90625 5.55664H23.0937C23.8704 5.55664 24.5 6.18622 24.5 6.96289V18.0369C24.5 18.8135 23.8703 19.4431 23.0937 19.4431Z" fill="#29E088"/>
<path d="M24.5 6.96314V18.0369C24.5 18.8136 23.8704 19.4431 23.0937 19.4431H11.6351C17.1003 18.4583 21.2459 13.678 21.2459 7.9297C21.2459 7.11688 21.1629 6.32329 21.005 5.55688H23.0937C23.8704 5.55688 24.5 6.18642 24.5 6.96314Z" fill="#0CC166"/>
<path d="M24.5 14.2231V18.0369C24.5 18.8136 23.8704 19.4431 23.0937 19.4431H17.6469C20.6754 18.897 23.2043 16.9128 24.5 14.2231Z" fill="#04A550"/>
<path d="M22.8594 7.66626V16.865C22.8594 17.383 22.4398 17.8025 21.9219 17.8025H2.60938C2.35063 17.8025 2.14062 17.593 2.14062 17.3338V8.13501C2.14062 7.61704 2.56016 7.19751 3.07812 7.19751H22.3906C22.6494 7.19751 22.8594 7.40704 22.8594 7.66626Z" fill="#0CC166"/>
<path d="M22.8593 7.66626V16.865C22.8593 17.383 22.4398 17.8025 21.9218 17.8025H15.8262C19.0849 15.7255 21.2459 12.08 21.2459 7.9297C21.2459 7.6836 21.2384 7.43938 21.2234 7.19751H22.3905C22.6493 7.19751 22.8593 7.40704 22.8593 7.66626Z" fill="#04A550"/>
<path d="M12.5 17.0703C14.7531 17.0703 16.5796 15.0241 16.5796 12.5C16.5796 9.97589 14.7531 7.92969 12.5 7.92969C10.2468 7.92969 8.42029 9.97589 8.42029 12.5C8.42029 15.0241 10.2468 17.0703 12.5 17.0703Z" fill="#04A550"/>
<path d="M16.5795 12.5C16.5795 15.0243 14.7533 17.0704 12.5 17.0704C11.1575 17.0704 9.96685 16.3443 9.22388 15.2235C9.77044 15.4602 10.3733 15.591 11.0065 15.591C13.49 15.591 15.5033 13.5777 15.5033 11.0943C15.5033 10.2435 15.267 9.44755 14.8559 8.7688C15.8989 9.59614 16.5795 10.9593 16.5795 12.5Z" fill="#00893E"/>
<path d="M13.7431 12.4464L11.8121 11.4631C11.7799 11.4466 11.7599 11.414 11.7599 11.3779C11.7599 11.3251 11.8027 11.2823 11.8555 11.2823H13.1444C13.1972 11.2823 13.2401 11.3251 13.2401 11.3779C13.2401 11.7158 13.514 11.9897 13.8519 11.9897C14.1899 11.9897 14.4638 11.7158 14.4638 11.3779C14.4638 10.6504 13.8719 10.0585 13.1444 10.0585H13.1118V9.91655C13.1118 9.57863 12.8379 9.30469 12.5 9.30469C12.162 9.30469 11.8881 9.57863 11.8881 9.91655V10.0585H11.8555C11.128 10.0585 10.5361 10.6504 10.5361 11.3779C10.5361 11.8767 10.8123 12.3273 11.2568 12.5536L13.1879 13.5369C13.2201 13.5534 13.2401 13.586 13.2401 13.6222C13.2401 13.6749 13.1972 13.7178 13.1445 13.7178H11.8555C11.8028 13.7178 11.7599 13.6749 11.7599 13.6222C11.7599 13.2842 11.486 13.0103 11.148 13.0103C10.8101 13.0103 10.5362 13.2842 10.5362 13.6222C10.5362 14.3497 11.1281 14.9416 11.8556 14.9416H11.8881V15.0835C11.8881 15.4214 12.1621 15.6953 12.5 15.6953C12.8379 15.6953 13.1119 15.4214 13.1119 15.0835V14.9416H13.1444C13.8719 14.9416 14.4638 14.3497 14.4638 13.6222C14.4639 13.1233 14.1877 12.6728 13.7431 12.4464Z" fill="#29E088"/>
<path d="M13.1978 12.1685L12.3573 11.7406C12.0562 11.5872 11.6877 11.7071 11.5344 12.0082C11.3811 12.3093 11.5009 12.6777 11.802 12.8311L12.6425 13.259C12.9436 13.4124 13.3121 13.2926 13.4654 12.9914C13.6187 12.6903 13.4989 12.3219 13.1978 12.1685Z" fill="#79FF79"/>
<path d="M3.83047 9.82466H2.14062V8.13477C2.14062 7.61698 2.56034 7.19727 3.07813 7.19727H4.76802V8.88716C4.76797 9.40494 4.34825 9.82466 3.83047 9.82466Z" fill="#79FF79"/>
<path d="M22.8593 15.175V16.8649C22.8593 17.3829 22.4397 17.8024 21.9218 17.8024H20.2319V16.1125C20.2319 15.595 20.6515 15.175 21.1694 15.175H22.8593Z" fill="#79FF79"/>
<path d="M21.3015 9.46387H17.9143C17.5907 9.46387 17.3284 9.20155 17.3284 8.87793C17.3284 8.5543 17.5907 8.29199 17.9143 8.29199H21.3015C21.6252 8.29199 21.8875 8.5543 21.8875 8.87793C21.8875 9.20155 21.6252 9.46387 21.3015 9.46387Z" fill="#00893E"/>
<path d="M19.8452 8.29199H18.7733C18.4497 8.29199 18.1874 8.5543 18.1874 8.87793C18.1874 9.20155 18.4497 9.46387 18.7733 9.46387H19.8452C20.1688 9.46387 20.4311 9.20155 20.4311 8.87793C20.4311 8.55435 20.1687 8.29199 19.8452 8.29199Z" fill="#04A550"/>
<path d="M7.0856 16.708H3.69836C3.37474 16.708 3.11243 16.4457 3.11243 16.1221C3.11243 15.7984 3.37474 15.5361 3.69836 15.5361H7.0856C7.40922 15.5361 7.67154 15.7984 7.67154 16.1221C7.67154 16.4456 7.40918 16.708 7.0856 16.708Z" fill="#00893E"/>
<path d="M5.60901 15.5361H4.43652C4.1129 15.5361 3.85059 15.7984 3.85059 16.1221C3.85059 16.4457 4.1129 16.708 4.43652 16.708H5.60901C5.93263 16.708 6.19495 16.4457 6.19495 16.1221C6.19495 15.7984 5.93263 15.5361 5.60901 15.5361Z" fill="#04A550"/>
<path d="M15.4874 10.0078C15.8758 10.0078 16.1906 9.69301 16.1906 9.30469C16.1906 8.91636 15.8758 8.60156 15.4874 8.60156C15.0991 8.60156 14.7843 8.91636 14.7843 9.30469C14.7843 9.69301 15.0991 10.0078 15.4874 10.0078Z" fill="#79FF79"/>
<path d="M15.4874 16.3984C15.8758 16.3984 16.1906 16.0836 16.1906 15.6953C16.1906 15.307 15.8758 14.9922 15.4874 14.9922C15.0991 14.9922 14.7843 15.307 14.7843 15.6953C14.7843 16.0836 15.0991 16.3984 15.4874 16.3984Z" fill="#79FF79"/>
<path d="M9.5127 10.0078C9.90102 10.0078 10.2158 9.69301 10.2158 9.30469C10.2158 8.91636 9.90102 8.60156 9.5127 8.60156C9.12437 8.60156 8.80957 8.91636 8.80957 9.30469C8.80957 9.69301 9.12437 10.0078 9.5127 10.0078Z" fill="#79FF79"/>
<path d="M9.5127 16.3984C9.90102 16.3984 10.2158 16.0836 10.2158 15.6953C10.2158 15.307 9.90102 14.9922 9.5127 14.9922C9.12437 14.9922 8.80957 15.307 8.80957 15.6953C8.80957 16.0836 9.12437 16.3984 9.5127 16.3984Z" fill="#79FF79"/>
<path d="M16.6453 13.2031C17.0336 13.2031 17.3484 12.8883 17.3484 12.5C17.3484 12.1117 17.0336 11.7969 16.6453 11.7969C16.2569 11.7969 15.9421 12.1117 15.9421 12.5C15.9421 12.8883 16.2569 13.2031 16.6453 13.2031Z" fill="#29E088"/>
<path d="M8.35461 13.2031C8.74294 13.2031 9.05774 12.8883 9.05774 12.5C9.05774 12.1117 8.74294 11.7969 8.35461 11.7969C7.96629 11.7969 7.65149 12.1117 7.65149 12.5C7.65149 12.8883 7.96629 13.2031 8.35461 13.2031Z" fill="#29E088"/>
<path d="M14.7041 5.55688H6.56335C6.11031 5.55688 5.74304 5.92415 5.74304 6.3772C5.74304 6.83024 6.11031 7.19751 6.56335 7.19751H14.7042C15.1572 7.19751 15.5245 6.83024 15.5245 6.3772C15.5244 5.92415 15.1572 5.55688 14.7041 5.55688Z" fill="#79FF79"/>
<path d="M12.0253 5.55688H8.79089C8.33785 5.55688 7.97058 5.92415 7.97058 6.3772C7.97058 6.83024 8.33785 7.19751 8.79089 7.19751H12.0253C12.4783 7.19751 12.8456 6.83024 12.8456 6.3772C12.8456 5.92415 12.4783 5.55688 12.0253 5.55688Z" fill="#C2FFC2"/>
<path d="M2.14062 16.4308V12.3181C2.14062 11.8651 1.77336 11.4978 1.32031 11.4978C0.867266 11.4978 0.5 11.8651 0.5 12.3181V16.4308C0.5 16.8839 0.867266 17.2511 1.32031 17.2511C1.77336 17.2511 2.14062 16.8839 2.14062 16.4308Z" fill="#79FF79"/>
<path d="M0.5 13.6311V14.2103C0.5 14.6633 0.867266 15.0306 1.32031 15.0306C1.77336 15.0306 2.14062 14.6633 2.14062 14.2103V13.6311C2.14062 13.1781 1.77336 12.8108 1.32031 12.8108C0.867266 12.8108 0.5 13.1781 0.5 13.6311Z" fill="#C2FFC2"/>
<path d="M14.5707 20.3542H10.8577C10.4016 20.3542 10.032 20.724 10.032 21.18C10.032 21.636 10.4017 22.0057 10.8577 22.0057H14.5707C15.0268 22.0057 15.3965 21.636 15.3965 21.18C15.3965 20.7239 15.0267 20.3542 14.5707 20.3542Z" fill="#7CBAF7"/>
<path d="M12.8434 20.3542H12.0145C11.5585 20.3542 11.1888 20.724 11.1888 21.18C11.1888 21.636 11.5585 22.0057 12.0145 22.0057H12.8434C13.2994 22.0057 13.6691 21.636 13.6691 21.18C13.6691 20.7239 13.2994 20.3542 12.8434 20.3542Z" fill="#A9CFFC"/>
<path d="M22.8593 16.6091V16.8651C22.8593 17.383 22.4398 17.8026 21.9218 17.8026H21.5009C21.9912 17.4487 22.4458 17.0484 22.8593 16.6091Z" fill="#0CC166"/>
</g>
<defs>
<clipPath id="clip0_11_7050">
<rect width="24" height="24" fill="white" transform="translate(0.5 0.5)"/>
</clipPath>
</defs>
</svg>
